<svg width="173" height="64" viewBox="0 0 173 64" fill="none" xmlns="http://www.w3.org/2000/svg">
<g clip-path="url(#clip0_1046_8477)">
<g clip-path="url(#clip1_1046_8477)">
<rect width="173" height="64" fill="#FFC220"/>
<path d="M29.3457 9.47734C9.44654 13.6697 -0.745278 21.705 -3.35379 25.1986L-12.1575 52.7387L105.924 56.6411L179.568 36.2369V-2.78746C159.631 -4.42277 115.594 -6.37771 98.937 -1.11499C78.1155 5.46341 54.2197 4.23693 29.3457 9.47734Z" fill="url(#paint0_linear_1046_8477)"/>
<path d="M53.1018 34.1185C30.296 32.5129 8.29133 38.7271 0.139741 42.0348L-5.58966 75.4843H159.585V43.4843C152.411 44.6736 134.571 46.7847 120.597 45.7143C103.129 44.3763 81.609 36.1254 53.1018 34.1185Z" fill="url(#paint1_linear_1046_8477)"/>
<path d="M139.043 29.547C160.842 25.3547 177.658 29.6585 183.341 32.3345V71.4704H-1.67691V52.1812C7.59261 54.82 35.2428 58.9157 71.6874 54.1881C117.243 48.2787 111.793 34.7875 139.043 29.547Z" fill="url(#paint2_linear_1046_8477)"/>
</g>
<g opacity="0.5">
<path d="M62 48H66" stroke="white" stroke-width="1.5" stroke-linecap="round"/>
<path d="M64 46L64 50" stroke="white" stroke-width="1.5" stroke-linecap="round"/>
</g>
<g opacity="0.5">
<path d="M160.25 8.5H162.75" stroke="white" stroke-linecap="round"/>
<path d="M161.5 7.25L161.5 9.75" stroke="white" stroke-linecap="round"/>
</g>
<circle opacity="0.5" cx="92" cy="55" r="3" fill="white"/>
<g clip-path="url(#clip2_1046_8477)">
<path d="M120.8 51.92C119.94 51.92 119.23 51.2 119.23 50.34V41.36C119.23 33.01 126.01 26.21 134.35 26.21C142.69 26.21 149.47 33 149.47 41.36V50.34C149.47 51.2 148.75 51.92 147.9 51.92H120.8Z" fill="url(#paint3_linear_1046_8477)"/>
<path d="M141.35 41.33C140.21 41.33 139.27 40.22 139.27 38.86V36.24C139.27 34.88 140.2 33.77 141.35 33.77C142.5 33.77 143.43 34.88 143.43 36.24V38.86C143.43 40.22 142.5 41.33 141.35 41.33ZM127.35 41.33C126.21 41.33 125.27 40.22 125.27 38.86V36.24C125.27 34.88 126.2 33.77 127.35 33.77C128.5 33.77 129.43 34.88 129.43 36.24V38.86C129.43 40.22 128.5 41.33 127.35 41.33Z" fill="#DE7302"/>
<path d="M147.1 24.55L149.62 20.07C150.96 20.07 152.27 19.36 153 18.07C154.08 16.14 153.46 13.67 151.6 12.54C149.75 11.42 147.36 12.06 146.28 13.99C145.56 15.28 145.6 16.81 146.26 18.03L143.82 22.35C140.9 20.77 137.64 19.95 134.34 19.95C131.18 19.95 128.06 20.7 125.23 22.15L122.91 18.03C123.25 17.41 123.42 16.72 123.42 16.01C123.42 15.3 123.23 14.61 122.89 13.99C121.82 12.08 119.44 11.43 117.58 12.56C115.73 13.68 115.1 16.16 116.18 18.09C116.52 18.7 117.01 19.2 117.61 19.55C118.2 19.9 118.88 20.08 119.57 20.08L121.94 24.29C117.11 28.07 114 34 114 40.67V49.14C114 53.51 117.49 57.06 121.78 57.06H146.91C151.2 57.06 154.69 53.51 154.69 49.14V40.67C154.69 34.16 151.72 28.35 147.1 24.55ZM151.46 49.73C151.46 52 149.64 53.85 147.41 53.85H121.27C119.04 53.85 117.22 52 117.22 49.73V40.92C117.22 31.31 124.9 23.49 134.34 23.49C143.78 23.49 151.46 31.31 151.46 40.92V49.73Z" fill="url(#paint4_linear_1046_8477)"/>
<path d="M138.38 50.41H130.31C129.2 50.41 128.29 49.41 128.29 48.18V48.1C128.29 46.88 129.2 45.87 130.31 45.87H138.38C139.49 45.87 140.4 46.87 140.4 48.1V48.18C140.4 49.4 139.49 50.41 138.38 50.41Z" fill="#DE7302"/>
<path d="M136.52 17.13C135.94 17.13 135.4 16.96 135.02 16.67L133.5 15.5L132.41 16.55C132.23 16.73 131.98 16.87 131.7 16.97C131.41 17.07 131.1 17.12 130.78 17.12H127.27C126.17 17.12 125.28 16.52 125.28 15.78C125.28 15.04 126.17 14.44 127.27 14.44H129.73L131.68 12.55C132.03 12.21 132.59 12 133.21 11.98C133.83 11.96 134.42 12.13 134.82 12.44L137.42 14.44L141.4 14.42H141.41C141.94 14.42 142.45 14.56 142.82 14.81C143.19 15.06 143.41 15.4 143.41 15.75C143.41 16.1 143.2 16.44 142.83 16.7C142.46 16.95 141.95 17.09 141.42 17.09L136.52 17.11C136.52 17.11 136.51 17.11 136.5 17.11L136.52 17.13Z" fill="white"/>
</g>
</g>
<defs>
<linearGradient id="paint0_linear_1046_8477" x1="180" y1="26.0906" x2="-7.40631" y2="26.0906" gradientUnits="userSpaceOnUse">
<stop offset="0.0001" stop-color="#FF9740"/>
<stop offset="1" stop-color="#FFA722"/>
</linearGradient>
<linearGradient id="paint1_linear_1046_8477" x1="76.9976" y1="33.8582" x2="76.9976" y2="57.4216" gradientUnits="userSpaceOnUse">
<stop stop-color="#FFBF5F"/>
<stop offset="1" stop-color="#FF9533"/>
</linearGradient>
<linearGradient id="paint2_linear_1046_8477" x1="175.515" y1="33.338" x2="92.022" y2="65.5486" gradientUnits="userSpaceOnUse">
<stop stop-color="#FF8417"/>
<stop offset="1" stop-color="#FFAD31"/>
</linearGradient>
<linearGradient id="paint3_linear_1046_8477" x1="134.35" y1="26.22" x2="134.35" y2="51.92" gradientUnits="userSpaceOnUse">
<stop stop-color="white"/>
<stop offset="1" stop-color="white" stop-opacity="0"/>
</linearGradient>
<linearGradient id="paint4_linear_1046_8477" x1="134.55" y1="60.01" x2="133.59" y2="-13.03" gradientUnits="userSpaceOnUse">
<stop stop-color="white"/>
<stop offset="1" stop-color="white" stop-opacity="0"/>
</linearGradient>
<clipPath id="clip0_1046_8477">
<rect width="173" height="64" fill="white"/>
</clipPath>
<clipPath id="clip1_1046_8477">
<rect width="173" height="64" fill="white"/>
</clipPath>
<clipPath id="clip2_1046_8477">
<rect width="40.7" height="45.06" fill="white" transform="translate(114 12)"/>
</clipPath>
</defs>
</svg>
