<svg width="173" height="136" viewBox="0 0 173 136" fill="none" xmlns="http://www.w3.org/2000/svg">
<g clip-path="url(#clip0_898_2670)">
<g clip-path="url(#clip1_898_2670)">
<rect width="255" height="139" transform="translate(-41)" fill="#0083FF"/>
<path d="M48.1793 39.5354C19.3257 45.9767 4.54762 58.3225 0.765306 63.6903L-12 106.004L159.217 112L266 80.6501V20.6912C237.092 18.1787 173.239 15.175 149.086 23.2609C118.895 33.3682 84.2464 31.4838 48.1793 39.5354Z" fill="url(#paint0_linear_898_2670)"/>
<path d="M52.9848 72.4565C30.065 69.6408 7.95037 80.5386 -0.241963 86.3395L-6 145H160V88.8814C152.791 90.9671 134.861 94.6693 120.817 92.7921C103.262 90.4457 81.6345 75.9761 52.9848 72.4565Z" fill="url(#paint1_linear_898_2670)"/>
<path d="M138.706 64.0495C160.504 56.7544 177.318 64.2435 183 68.8999V137H-2V103.435C7.26863 108.027 34.9162 115.154 71.3573 106.927C116.909 96.6444 111.459 73.1683 138.706 64.0495Z" fill="url(#paint2_linear_898_2670)"/>
<g clip-path="url(#clip2_898_2670)">
<path d="M157.37 86.6545C155.923 84.8466 153.889 83.5701 151.648 83.0543C151.306 82.9761 150.901 82.9188 150.471 82.8824C148.038 76.7084 143.924 71.4097 138.513 67.5022C132.62 63.2455 125.664 61 118.391 61C111.118 61 104.157 63.2455 98.2687 67.5022C92.8893 71.3889 88.7963 76.6407 86.3582 82.7677C85.8602 82.8042 85.3985 82.8667 85.0146 82.9553C82.7736 83.4711 80.7401 84.7528 79.2928 86.5555C77.8196 88.3894 77.0051 90.7027 77.0051 93.0629V98.3355C77.0051 104.056 81.6376 108.709 87.3334 108.709C90.2851 108.709 92.6869 106.296 92.6869 103.332V87.1703C92.6869 85.5812 91.8518 84.1276 90.5134 83.3252C92.6973 78.3287 96.1678 74.0304 100.634 70.8054C105.827 67.0541 111.969 65.0691 118.391 65.0691C124.813 65.0691 130.95 67.0541 136.143 70.8054C140.619 74.0356 144.085 78.3444 146.274 83.3513C144.863 84.1328 143.971 85.6333 143.971 87.2745V103.436C143.971 106.401 146.372 108.813 149.324 108.813C155.02 108.813 159.652 104.16 159.652 98.4397V93.1671C159.652 90.8069 158.843 88.4936 157.365 86.6597L157.37 86.6545ZM88.6303 103.332C88.6303 104.051 88.0441 104.64 87.3283 104.64C83.8682 104.64 81.0514 101.811 81.0514 98.3355V93.0629C81.0514 91.6092 81.5338 90.239 82.4416 89.1084C83.3235 88.0091 84.5581 87.2328 85.9224 86.915C85.9224 86.915 85.9276 86.915 85.9328 86.915C86.2648 86.8368 86.7732 86.8003 87.3023 86.8003C87.7225 86.8003 88.1531 86.8264 88.511 86.8733C88.5784 86.941 88.6355 87.04 88.6355 87.1703V103.332H88.6303ZM155.601 98.4345C155.601 101.91 152.784 104.739 149.324 104.739C148.608 104.739 148.022 104.15 148.022 103.431V87.2692C148.022 87.139 148.079 87.04 148.147 86.9723C148.945 86.8629 150.128 86.8733 150.725 87.014C150.725 87.014 150.73 87.014 150.735 87.014C152.094 87.3266 153.329 88.1081 154.216 89.2074C155.124 90.338 155.606 91.703 155.606 93.1619V98.4345H155.601Z" fill="url(#paint3_linear_898_2670)"/>
<path d="M132.086 73.6318C128.009 70.6047 123.163 69 118.075 69C112.986 69 108.135 70.6047 104.053 73.637C100.053 76.6119 97.1378 80.681 95.6178 85.417C95.5504 85.6202 95.5193 85.8286 95.5193 86.0422V98.3136C95.5193 98.5272 95.5504 98.7356 95.6178 98.9388C97.1378 103.67 100.053 107.744 104.053 110.719C108.135 113.751 112.98 115.356 118.069 115.356H137.351C139.141 115.356 140.599 113.897 140.599 112.099C140.599 111.704 140.485 111.318 140.272 110.99L136.952 105.868C138.518 103.779 139.712 101.466 140.516 98.9701C140.583 98.7669 140.614 98.5585 140.614 98.3449V86.0213C140.614 85.8077 140.583 85.5993 140.516 85.3961C138.996 80.6706 136.075 76.6015 132.081 73.637L132.086 73.6318Z" fill="url(#paint4_linear_898_2670)"/>
<path d="M107.56 88.1706C106.299 88.1706 105.272 89.2074 105.272 90.4682V94.3133C105.272 95.5793 106.304 96.6109 107.56 96.6109C108.815 96.6109 109.847 95.5741 109.847 94.3133V90.4682C109.847 89.2022 108.815 88.1706 107.56 88.1706ZM123.298 88.1706C122.038 88.1706 121.011 89.2074 121.011 90.4682V94.3133C121.011 95.5793 122.043 96.6109 123.298 96.6109C124.554 96.6109 125.586 95.5741 125.586 94.3133V90.4682C125.586 89.2022 124.554 88.1706 123.298 88.1706Z" fill="#0169CD"/>
</g>
</g>
<g opacity="0.5">
<path d="M22 111H26" stroke="white" stroke-width="1.5" stroke-linecap="round"/>
<path d="M24 109L24 113" stroke="white" stroke-width="1.5" stroke-linecap="round"/>
</g>
<g opacity="0.5">
<path d="M120.25 51.5H122.75" stroke="white" stroke-linecap="round"/>
<path d="M121.5 50.25L121.5 52.75" stroke="white" stroke-linecap="round"/>
</g>
<circle opacity="0.5" cx="42.5" cy="118.5" r="3.5" fill="white"/>
<circle opacity="0.5" cx="59.5" cy="92.5" r="2.5" fill="white"/>
<circle opacity="0.5" cx="152.5" cy="41.5" r="2.5" fill="white"/>
</g>
<defs>
<linearGradient id="paint0_linear_898_2670" x1="90.1224" y1="65.0608" x2="-5.1108" y2="65.0608" gradientUnits="userSpaceOnUse">
<stop stop-color="#007AED"/>
<stop offset="1" stop-color="#0083FF"/>
<stop offset="1" stop-color="#46A5FF"/>
</linearGradient>
<linearGradient id="paint1_linear_898_2670" x1="77" y1="72" x2="77" y2="113.323" gradientUnits="userSpaceOnUse">
<stop stop-color="#2796FF"/>
<stop offset="1" stop-color="#0077E8"/>
</linearGradient>
<linearGradient id="paint2_linear_898_2670" x1="175.175" y1="70.6461" x2="83.7573" y2="90.9119" gradientUnits="userSpaceOnUse">
<stop stop-color="#0072DE"/>
<stop offset="1" stop-color="#2394FF"/>
</linearGradient>
<linearGradient id="paint3_linear_898_2670" x1="118" y1="53" x2="118.329" y2="108.813" gradientUnits="userSpaceOnUse">
<stop stop-color="white"/>
<stop offset="0.0001" stop-color="white" stop-opacity="0"/>
<stop offset="1" stop-color="white"/>
</linearGradient>
<linearGradient id="paint4_linear_898_2670" x1="118.067" y1="66" x2="118.067" y2="117.356" gradientUnits="userSpaceOnUse">
<stop stop-color="white"/>
<stop offset="1" stop-color="white" stop-opacity="0"/>
</linearGradient>
<clipPath id="clip0_898_2670">
<rect width="173" height="136" fill="white"/>
</clipPath>
<clipPath id="clip1_898_2670">
<rect width="255" height="139" fill="white" transform="translate(-41)"/>
</clipPath>
<clipPath id="clip2_898_2670">
<rect width="83" height="55" fill="white" transform="translate(77 61)"/>
</clipPath>
</defs>
</svg>
