<svg width="173" height="64" viewBox="0 0 173 64" fill="none" xmlns="http://www.w3.org/2000/svg">
<g clip-path="url(#clip0_898_2655)">
<rect width="173" height="64" fill="url(#paint0_linear_898_2655)"/>
<path d="M29.3458 9.47734C9.44657 13.6697 -0.745248 21.705 -3.35376 25.1986L-12.1575 52.7387L105.924 56.6411L179.568 36.2369V-2.78746C159.631 -4.42277 115.594 -6.37771 98.937 -1.11499C78.1155 5.46341 54.2197 4.23693 29.3458 9.47734Z" fill="url(#paint1_linear_898_2655)"/>
<path d="M53.1018 34.1185C30.296 32.5129 8.29139 38.7271 0.139802 42.0348L-5.5896 75.4843H159.585V43.4843C152.411 44.6736 134.571 46.7847 120.597 45.7143C103.129 44.3763 81.6091 36.1254 53.1018 34.1185Z" fill="url(#paint2_linear_898_2655)"/>
<path d="M139.043 29.547C160.843 25.3547 177.658 29.6585 183.341 32.3345V71.4704H-1.67688V52.1812C7.59264 54.82 35.2428 58.9157 71.6874 54.1881C117.243 48.2787 111.793 34.7875 139.043 29.547Z" fill="url(#paint3_linear_898_2655)"/>
</g>
<g opacity="0.5">
<path d="M62 49H66" stroke="white" stroke-width="1.5" stroke-linecap="round"/>
<path d="M64 47L64 51" stroke="white" stroke-width="1.5" stroke-linecap="round"/>
</g>
<g opacity="0.5">
<path d="M160.25 9.5H162.75" stroke="white" stroke-linecap="round"/>
<path d="M161.5 8.25L161.5 10.75" stroke="white" stroke-linecap="round"/>
</g>
<circle opacity="0.5" cx="115.5" cy="53.5" r="2.5" fill="white"/>
<circle opacity="0.5" cx="112.5" cy="3.5" r="2.5" fill="white"/>
<rect x="119.25" y="14.25" width="38.5" height="38.5" rx="19.25" stroke="url(#paint4_linear_898_2655)" stroke-width="2.5"/>
<circle cx="138.5" cy="33.5" r="15.2436" fill="url(#paint5_linear_898_2655)"/>
<path d="M136.305 36.2861C135.714 31.8973 141.708 30.9189 141.708 28.2073C141.708 26.5021 140.357 25.5516 138.134 25.5516C136.418 25.5516 135.011 26.3343 133.632 27.76L131.325 25.6634C133.126 23.5948 135.602 22.225 138.613 22.225C142.692 22.225 145.675 24.1259 145.675 27.8439C145.675 31.9252 139.513 32.4284 139.963 36.2861H136.305ZM138.162 43.75C136.699 43.75 135.658 42.7157 135.658 41.2621C135.658 39.8084 136.727 38.8021 138.162 38.8021C139.569 38.8021 140.638 39.8084 140.638 41.2621C140.638 42.7157 139.569 43.75 138.162 43.75Z" fill="#FF260B"/>
<defs>
<linearGradient id="paint0_linear_898_2655" x1="-6" y1="25" x2="176.5" y2="25" gradientUnits="userSpaceOnUse">
<stop stop-color="#FF6342"/>
<stop offset="1" stop-color="#FF754F"/>
</linearGradient>
<linearGradient id="paint1_linear_898_2655" x1="180" y1="26.0906" x2="-7.40628" y2="26.0906" gradientUnits="userSpaceOnUse">
<stop offset="0.0001" stop-color="#FF3636"/>
<stop offset="1" stop-color="#FE793D"/>
</linearGradient>
<linearGradient id="paint2_linear_898_2655" x1="76.9976" y1="33.8582" x2="76.9976" y2="57.4216" gradientUnits="userSpaceOnUse">
<stop stop-color="#FF733D"/>
<stop offset="1" stop-color="#FF4B33"/>
</linearGradient>
<linearGradient id="paint3_linear_898_2655" x1="175.515" y1="33.338" x2="92.0221" y2="65.5486" gradientUnits="userSpaceOnUse">
<stop stop-color="#FF3C2C"/>
<stop offset="1" stop-color="#FF6D2F"/>
</linearGradient>
<linearGradient id="paint4_linear_898_2655" x1="139.026" y1="-0.666667" x2="138.5" y2="54" gradientUnits="userSpaceOnUse">
<stop stop-color="white" stop-opacity="0"/>
<stop offset="1" stop-color="white"/>
</linearGradient>
<linearGradient id="paint5_linear_898_2655" x1="138.5" y1="18.2564" x2="138.5" y2="48.7436" gradientUnits="userSpaceOnUse">
<stop stop-color="white"/>
<stop offset="1" stop-color="white" stop-opacity="0"/>
</linearGradient>
<clipPath id="clip0_898_2655">
<rect width="173" height="64" fill="white"/>
</clipPath>
</defs>
</svg>
