<svg width="16" height="16" viewBox="0 0 16 16" fill="none" xmlns="http://www.w3.org/2000/svg">
<path d="M5.33301 2.66659V10.6666C5.33301 11.0202 5.47348 11.3593 5.72353 11.6094C5.97358 11.8594 6.31272 11.9999 6.66634 11.9999H11.9997C12.3533 11.9999 12.6924 11.8594 12.9425 11.6094C13.1925 11.3593 13.333 11.0202 13.333 10.6666V4.82792C13.333 4.65029 13.2975 4.47446 13.2286 4.31075C13.1596 4.14704 13.0587 3.99875 12.9317 3.87459L10.7217 1.71325C10.4726 1.46969 10.1381 1.3333 9.78967 1.33325H6.66634C6.31272 1.33325 5.97358 1.47373 5.72353 1.72378C5.47348 1.97382 5.33301 2.31296 5.33301 2.66659V2.66659Z" stroke="white" stroke-linecap="round" stroke-linejoin="round"/>
<path d="M10.6665 11.9998V13.3332C10.6665 13.6868 10.526 14.0259 10.276 14.276C10.0259 14.526 9.68679 14.6665 9.33317 14.6665H3.99984C3.64622 14.6665 3.30708 14.526 3.05703 14.276C2.80698 14.0259 2.6665 13.6868 2.6665 13.3332V5.99984C2.6665 5.64622 2.80698 5.30708 3.05703 5.05703C3.30708 4.80698 3.64622 4.6665 3.99984 4.6665H5.33317" stroke="white" stroke-linecap="round" stroke-linejoin="round"/>
</svg>
