<svg width="24" height="24" viewBox="0 0 24 24" fill="none" xmlns="http://www.w3.org/2000/svg">
<path fill-rule="evenodd" clip-rule="evenodd" d="M12.0173 4C10.0099 4 8.18068 4.66298 7.09872 5.20492C7.0012 5.25376 6.9098 5.30161 6.82484 5.3479C6.65676 5.43951 6.51404 5.52503 6.39996 5.6L7.63104 7.41228L8.21048 7.64296C10.4755 8.7858 13.513 8.7858 15.778 7.64296L16.436 7.3016L17.6 5.6C17.4294 5.48628 17.1935 5.34831 16.9032 5.20161C16.8855 5.19267 16.8676 5.1837 16.8495 5.17469C15.7722 4.63865 13.9874 4 12.0173 4ZM9.15404 6.05163C8.711 5.96989 8.27568 5.85715 7.86476 5.7278C8.87868 5.27758 10.3897 4.8 12.0173 4.8C13.145 4.8 14.2112 5.0293 15.0932 5.31964C14.0596 5.46554 12.9567 5.71182 11.9061 6.01576C11.0794 6.25491 10.1131 6.22859 9.15404 6.05163Z" fill="black"/>
<path fill-rule="evenodd" clip-rule="evenodd" d="M16.2474 8.30225L16.1384 8.35721C13.6467 9.61441 10.3418 9.61441 7.85016 8.35721L7.74656 8.30497C4.00363 12.4122 0.0769694 20.1141 12.0173 19.9987C23.9495 19.8834 19.9613 12.2704 16.2474 8.30225ZM12.6845 11.2H11.3155V11.84C10.8706 11.839 10.4428 12 10.1227 12.2889C9.80268 12.5777 9.61552 12.9718 9.60092 13.3875C9.58632 13.8032 9.74544 14.2079 10.0445 14.5158C10.3436 14.8237 10.7592 15.0105 11.2032 15.0368L11.3155 15.04H12.6845L12.7461 15.0451C12.825 15.0585 12.8964 15.0973 12.9478 15.1549C12.9992 15.2124 13.0274 15.2851 13.0274 15.36C13.0274 15.435 12.9992 15.5076 12.9478 15.5651C12.8964 15.6227 12.825 15.6615 12.7461 15.6749L12.6845 15.68H9.94644V16.96H11.3155V17.6H12.6845V16.96C13.1294 16.9611 13.5572 16.8001 13.8773 16.5111C14.1973 16.2223 14.3845 15.8283 14.3991 15.4125C14.4137 14.9968 14.2546 14.5921 13.9555 14.2842C13.6564 13.9764 13.2408 13.7895 12.7968 13.7632L12.6845 13.76H11.3155L11.2539 13.7549C11.175 13.7415 11.1036 13.7027 11.0522 13.6451C11.0008 13.5876 10.9726 13.515 10.9726 13.44C10.9726 13.365 11.0008 13.2924 11.0522 13.2349C11.1036 13.1773 11.175 13.1385 11.2539 13.1251L11.3155 13.12H14.0536V11.84H12.6845V11.2Z" fill="black"/>
</svg>
