<svg width="390" height="50" viewBox="0 0 390 50" fill="none" xmlns="http://www.w3.org/2000/svg">
<g filter="url(#filter0_b_941_14091)">
<rect width="390" height="50" fill="white"/>
<path fill-rule="evenodd" clip-rule="evenodd" d="M84.3867 33.637C84.0008 33.6321 83.6168 33.5808 83.2428 33.484L82.5455 35.7699C83.2299 35.9339 83.9317 36.0108 84.6347 35.9988C86.2939 35.9988 87.5999 35.6262 88.5526 34.8811C89.5053 34.136 90.3055 33.0862 90.9532 31.7317L96.5 19.9231H93.0424L90.7534 25.2812C90.5384 25.8232 90.3313 26.3563 90.1319 26.8805C89.9004 27.4393 89.6849 27.9813 89.4856 28.5064H89.3616C89.1948 28.1175 89.0124 27.7112 88.8144 27.2877C88.5319 26.5926 88.2416 25.9238 87.9435 25.2812L85.332 19.9231H81.625L87.6941 31.1981L87.446 31.8847C87.2303 32.4086 86.8612 32.8519 86.389 33.154C85.8998 33.4756 85.2324 33.6366 84.3867 33.637Z" fill="#85B716"/>
<path fill-rule="evenodd" clip-rule="evenodd" d="M78.8365 27.6535C77.7529 28.4078 76.4646 28.8063 75.1478 28.7943C74.6003 28.8131 74.0546 28.7225 73.5419 28.528C73.3523 28.4626 73.1887 28.3373 73.0754 28.1706C72.9622 28.0039 72.9054 27.8049 72.9135 27.6031C72.9135 27.0789 73.3362 26.6435 74.1815 26.2969C75.0269 25.9503 76.5785 25.7265 78.8365 25.6256V27.6535ZM69.375 27.8567C69.375 28.7522 69.8018 29.487 70.6555 30.0611C71.5092 30.6353 72.6387 30.9226 74.0438 30.9231C74.9546 30.922 75.8599 30.7812 76.7286 30.5055C77.5721 30.2458 78.3812 29.884 79.1381 29.4277H79.2883L79.5135 30.6694H82.5V24.5353C82.5 23.0147 81.9647 21.866 80.8942 21.0892C79.8236 20.3123 78.3011 19.9236 76.3268 19.9231C75.173 19.9208 74.0229 20.0568 72.9009 20.3281C71.869 20.5703 70.8646 20.9187 69.9034 21.368L71.2325 23.1927C71.9588 22.8813 72.7047 22.6186 73.4654 22.4065C74.1767 22.207 74.9114 22.1047 75.6497 22.1024C76.7036 22.1024 77.4896 22.2673 78.0077 22.5971C78.2478 22.7344 78.4496 22.9307 78.5945 23.1676C78.7393 23.4045 78.8226 23.6743 78.8365 23.9523C75.4732 24.105 73.0558 24.4979 71.5843 25.1309C70.1119 25.7662 69.3755 26.6748 69.375 27.8567Z" fill="#F4AE01"/>
<path fill-rule="evenodd" clip-rule="evenodd" d="M44.136 24.3494C44.2272 23.9762 44.3959 23.6273 44.6307 23.3263C44.8655 23.0253 45.1609 22.7793 45.4969 22.6048C46.2397 22.222 47.0633 22.031 47.8954 22.0485C49.0165 22.0485 49.8534 22.2507 50.4061 22.6551C50.673 22.8436 50.8889 23.0976 51.0339 23.3937C51.1788 23.6899 51.2481 24.0186 51.2354 24.3494H44.136ZM54.4999 24.956C54.4999 23.5064 53.9312 22.3052 52.7937 21.3523C51.6561 20.3995 50.0069 19.9232 47.846 19.9237C46.0541 19.9033 44.2942 20.4078 42.7751 21.3775C41.2584 22.3476 40.5 23.7003 40.5 25.4355C40.5 27.1549 41.2584 28.4992 42.7751 29.4684C44.2918 30.4376 46.1306 30.9222 48.2915 30.9222C50.2492 30.9443 52.1889 30.5392 53.9805 29.734L52.769 28.0146C51.5127 28.5379 50.1679 28.8044 48.8109 28.7989C47.5582 28.7989 46.5029 28.584 45.645 28.1544C44.787 27.7248 44.3005 27.0883 44.1854 26.2449H54.3766C54.3773 26.1748 54.3942 26.1058 54.4259 26.0436C54.4768 25.6834 54.5015 25.3199 54.4999 24.956Z" fill="#E43137"/>
<path fill-rule="evenodd" clip-rule="evenodd" d="M62.1023 28.3816C61.0044 28.3837 59.93 28.057 59.0107 27.4418V22.4362C60.0988 21.6059 61.1873 21.1906 62.2763 21.1901C64.5347 21.3264 65.664 22.4868 65.664 24.6714C65.664 25.9259 65.3013 26.8578 64.5759 27.4671C63.884 28.0645 63.0068 28.3888 62.1023 28.3816ZM63.4384 18.6754C61.8078 18.6642 60.2123 19.1604 58.8627 20.0985L59.0107 18.2174V14H55.375V30.6688H58.1706L58.5159 29.4746H58.6654C59.8521 30.4398 61.3029 30.9226 63.0177 30.9231C64.7828 30.9231 66.2834 30.3766 67.5195 29.2836C68.7556 28.1906 69.3741 26.6363 69.375 24.6208C69.375 22.8253 68.8597 21.3854 67.8292 20.3008C66.7986 19.2176 65.335 18.6759 63.4384 18.6754Z" fill="#3665F3"/>
<path d="M116.78 41L116.5 21.0342L123.075 25.6838V37.3077L116.78 41Z" fill="#F4AE01"/>
<path d="M137.065 30.0598C138.604 28.4188 138.883 28.0806 139.55 26.9179C140.663 24.9767 141.204 22.7719 141.112 20.5485C141.02 18.325 140.299 16.17 139.03 14.323C137.76 12.4759 135.992 11.0091 133.92 10.0855C131.849 9.1619 129.557 8.81775 127.298 9.09125C125.039 9.36476 122.901 10.2452 121.123 11.6348C119.345 13.0244 117.996 14.8686 117.226 16.9627C116.456 19.0567 116.295 21.3184 116.76 23.4966L123.564 22.1063C123.361 21.1579 123.431 20.1732 123.767 19.2614C124.102 18.3497 124.69 17.5467 125.464 16.9417C126.238 16.3367 127.168 15.9533 128.152 15.8342C129.136 15.7152 130.134 15.865 131.036 16.2671C131.937 16.6693 132.707 17.3079 133.26 18.1121C133.813 18.9163 134.127 19.8546 134.167 20.8227C134.207 21.7908 133.971 22.7508 133.487 23.5959C133.002 24.4411 132.287 25.1384 131.422 25.6103L137.065 30.0598Z" fill="url(#paint0_linear_941_14091)"/>
<path fill-rule="evenodd" clip-rule="evenodd" d="M122.376 31.2906C120.417 30.2422 116.5 26.6684 116.5 20.7607C116.5 13.3761 123.495 9 128.391 9C133.148 9 137.484 11.3248 139.443 15.0171C137.811 14.2877 132.7 12.1726 128.111 13.9231C123.523 15.6735 123.122 20.0313 123.495 21.9915C123.728 22.7208 124.558 24.453 126.013 25.547C126.013 25.5471 126.013 25.5471 126.013 25.5472C126.049 25.5738 126.083 25.6012 126.116 25.6293L143.5 39.4957H132.588L122.376 31.2906Z" fill="url(#paint1_linear_941_14091)"/>
<g clip-path="url(#clip0_941_14091)">
<path fill-rule="evenodd" clip-rule="evenodd" d="M158.604 26.9706C159.759 26.6168 160.75 25.9841 161.441 25.159C162.116 24.2975 162.457 23.2936 162.421 22.2753C162.466 21.5401 162.298 20.8066 161.931 20.1326C161.563 19.4586 161.007 18.8627 160.305 18.3917C158.894 17.4585 156.916 16.9919 154.372 16.9919H147.5V33.6629H151.445V27.5165H154.711L158.787 33.6629H163.413L158.604 26.9706ZM153.849 19.877C155.023 19.8201 156.192 20.0356 157.219 20.4979C157.593 20.6842 157.898 20.9469 158.105 21.2594C158.311 21.5719 158.411 21.9229 158.395 22.2766C158.408 22.6227 158.306 22.9652 158.099 23.2688C157.892 23.5723 157.588 23.8257 157.219 24.0026C156.189 24.4581 155.021 24.6697 153.849 24.6131H151.445V19.877H153.849ZM178.75 26.6535C178.777 25.6497 178.484 24.657 177.901 23.7698C177.353 22.9571 176.522 22.2912 175.51 21.8543C174.35 21.3924 173.07 21.1618 171.776 21.1819C170.482 21.2021 169.214 21.4724 168.077 21.9701C166.979 22.504 166.102 23.2876 165.556 24.2223C164.936 25.2995 164.632 26.477 164.668 27.6639C164.633 28.8192 164.947 29.964 165.582 31.0002C166.16 31.9213 167.065 32.6832 168.182 33.1893C169.395 33.7195 170.76 33.9844 172.14 33.9576C173.475 33.985 174.793 33.7077 175.941 33.1577C177.016 32.6205 177.867 31.836 178.384 30.9055L175.275 29.7267C174.96 30.2147 174.503 30.6337 173.942 30.9476C173.42 31.2378 172.8 31.3921 172.166 31.3896C171.727 31.4082 171.288 31.3553 170.875 31.2341C170.462 31.113 170.084 30.926 169.762 30.6845C169.126 30.1393 168.731 29.44 168.639 28.6953H178.436C178.657 28.0297 178.763 27.3425 178.75 26.6535ZM168.743 26.1483C168.887 25.4778 169.278 24.8578 169.867 24.3697C170.143 24.1619 170.468 24.0001 170.822 23.8936C171.176 23.787 171.553 23.7378 171.931 23.7487C172.324 23.732 172.718 23.7813 173.087 23.8936C173.456 24.006 173.792 24.1788 174.073 24.4013C174.341 24.6361 174.548 24.9115 174.683 25.2114C174.817 25.5113 174.876 25.8298 174.857 26.1483H168.741H168.743ZM189.091 33.6629L194.944 21.4754H190.789L187.289 30.0424H187.132L183.553 21.4754H179.403L185.151 33.6629H189.091ZM201.188 17.8549C201.202 17.607 201.152 17.3593 201.042 17.1275C200.932 16.8957 200.764 16.6847 200.548 16.5078C200.319 16.3357 200.049 16.2023 199.756 16.1155C199.462 16.0287 199.149 15.9903 198.836 16.0026C198.535 15.9894 198.233 16.0265 197.949 16.1116C197.666 16.1967 197.408 16.328 197.19 16.4973C196.802 16.8805 196.589 17.3601 196.589 17.8549C196.589 18.3498 196.802 18.8294 197.19 19.2126C197.408 19.3819 197.666 19.5132 197.949 19.5984C198.233 19.6835 198.535 19.7206 198.836 19.7073C199.149 19.7196 199.462 19.6812 199.756 19.5944C200.049 19.5076 200.319 19.3742 200.548 19.2021C200.764 19.0252 200.932 18.8142 201.042 18.5824C201.152 18.3506 201.202 18.1029 201.188 17.8549ZM196.981 21.4754V33.6629H200.796V21.4754H196.984H196.981ZM217.726 26.6535C217.752 25.6497 217.46 24.657 216.876 23.7698C216.329 22.9571 215.498 22.2912 214.486 21.8543C213.326 21.3924 212.046 21.1618 210.752 21.1819C209.458 21.2021 208.19 21.4724 207.053 21.9701C205.955 22.504 205.078 23.2876 204.532 24.2223C203.912 25.2995 203.608 26.477 203.644 27.6639C203.609 28.8192 203.923 29.964 204.558 31.0002C205.137 31.9217 206.044 32.6837 207.162 33.1893C208.375 33.7195 209.74 33.9844 211.12 33.9576C212.455 33.985 213.773 33.7077 214.921 33.1577C215.997 32.6205 216.848 31.836 217.364 30.9055L214.255 29.7267C213.941 30.2147 213.483 30.6337 212.923 30.9476C212.401 31.2378 211.781 31.3921 211.146 31.3896C210.707 31.4082 210.268 31.3553 209.855 31.2341C209.442 31.113 209.064 30.926 208.743 30.6845C208.106 30.1393 207.711 29.44 207.619 28.6953H217.416C217.638 28.0297 217.743 27.3425 217.73 26.6535H217.726ZM207.719 26.1483C207.863 25.4778 208.254 24.8578 208.843 24.3697C209.119 24.1619 209.444 24.0001 209.798 23.8936C210.152 23.787 210.529 23.7378 210.907 23.7487C211.3 23.732 211.694 23.7813 212.063 23.8936C212.432 24.006 212.768 24.1788 213.049 24.4013C213.317 24.6361 213.524 24.9115 213.659 25.2114C213.793 25.5113 213.852 25.8298 213.833 26.1483H207.721H207.719ZM227.418 33.6629L230.24 25.3695H230.371L233.192 33.6629H237.137L241.918 21.4754H237.817L235.15 29.8741H234.993L232.276 21.4754H228.335L225.644 29.8741H225.487L222.796 21.4754H218.694L223.476 33.6629H227.421H227.418ZM264.336 26.9706C265.49 26.6168 266.48 25.9846 267.171 25.1603C267.846 24.2988 268.187 23.2949 268.151 22.2766C268.196 21.5414 268.028 20.8079 267.661 20.1339C267.293 19.4599 266.737 18.864 266.035 18.393C264.624 17.4598 262.646 16.9932 260.102 16.9932H253.233V33.6642H257.178V27.5165H260.444L264.519 33.6629H269.146L264.336 26.9706ZM259.581 19.877C260.755 19.8201 261.925 20.0356 262.952 20.4979C263.325 20.6842 263.631 20.9469 263.838 21.2594C264.044 21.5719 264.144 21.9229 264.127 22.2766C264.14 22.6227 264.038 22.9652 263.832 23.2688C263.625 23.5723 263.321 23.8257 262.952 24.0026C261.922 24.4581 260.754 24.6697 259.581 24.6131H257.178V19.877H259.581ZM277.608 33.9589C278.944 33.9853 280.264 33.7159 281.423 33.1801C282.509 32.6551 283.377 31.8823 283.918 30.9594C284.495 29.8901 284.793 28.7365 284.793 27.5705C284.793 26.4044 284.495 25.2508 283.918 24.1816C283.377 23.2588 282.509 22.486 281.423 21.9609C280.249 21.4497 278.936 21.182 277.602 21.182C276.268 21.182 274.955 21.4497 273.781 21.9609C272.689 22.483 271.815 23.2564 271.273 24.1816C270.696 25.2508 270.398 26.4044 270.398 27.5705C270.398 28.7365 270.696 29.8901 271.273 30.9594C271.815 31.8848 272.689 32.6582 273.781 33.1801C274.945 33.7152 276.268 33.9845 277.608 33.9589ZM277.608 31.0541C277.138 31.0683 276.671 30.9893 276.247 30.8242C275.824 30.659 275.457 30.4128 275.179 30.1069C274.543 29.3596 274.231 28.4645 274.29 27.56C274.23 26.6586 274.542 25.7665 275.179 25.0235C275.469 24.7313 275.836 24.4954 276.255 24.3333C276.673 24.1711 277.131 24.0869 277.595 24.0869C278.06 24.0869 278.518 24.1711 278.936 24.3333C279.355 24.4954 279.722 24.7313 280.012 25.0235C280.648 25.7666 280.96 26.6586 280.9 27.56C280.959 28.4645 280.647 29.3594 280.012 30.1069C279.738 30.4109 279.376 30.6562 278.956 30.8213C278.538 30.9865 278.075 31.0664 277.608 31.0541ZM291.194 33.6642V32.1452H291.325C291.784 32.7004 292.403 33.1588 293.127 33.4818C293.848 33.799 294.658 33.9621 295.479 33.9554C296.63 33.972 297.757 33.6877 298.69 33.145C299.655 32.5602 300.398 31.7689 300.832 30.8612C301.363 29.7687 301.62 28.6028 301.59 27.4302C301.619 26.3053 301.361 25.1877 300.832 24.1465C300.392 23.2729 299.654 22.5175 298.703 21.9679C297.771 21.4511 296.661 21.1825 295.529 21.1996C294.704 21.1972 293.892 21.36 293.164 21.6732C292.428 21.986 291.796 22.4373 291.323 22.9888H291.192V16.9897H287.378V33.6607H291.192L291.194 33.6642ZM291.092 27.5797C291.037 26.6756 291.359 25.7826 292.007 25.0433C292.281 24.7388 292.643 24.4925 293.062 24.3257C293.481 24.1589 293.943 24.0765 294.41 24.0855C294.876 24.076 295.337 24.1583 295.753 24.3252C296.17 24.4922 296.53 24.7387 296.801 25.0433C297.441 25.7854 297.758 26.6772 297.702 27.5797C297.756 28.4784 297.43 29.3651 296.777 30.0951C296.495 30.4008 296.126 30.6474 295.701 30.8141C295.275 30.9808 294.807 31.0627 294.334 31.0528C293.875 31.0615 293.42 30.9786 293.009 30.8115C292.599 30.6445 292.247 30.3984 291.983 30.0951C291.353 29.3574 291.041 28.4738 291.094 27.5797H291.092ZM310.741 33.9576C312.077 33.984 313.397 33.7146 314.556 33.1788C315.642 32.6538 316.51 31.881 317.051 30.9581C317.628 29.8888 317.926 28.7352 317.926 27.5692C317.926 26.4031 317.628 25.2495 317.051 24.1802C316.51 23.2575 315.642 22.4847 314.556 21.9595C313.382 21.4484 312.069 21.1807 310.735 21.1807C309.401 21.1807 308.088 21.4484 306.914 21.9595C305.822 22.4817 304.948 23.2551 304.406 24.1802C303.828 25.2495 303.531 26.4031 303.531 27.5692C303.531 28.7352 303.828 29.8888 304.406 30.9581C304.948 31.8835 305.821 32.6569 306.914 33.1788C308.078 33.7139 309.401 33.9832 310.741 33.9576ZM310.741 31.0528C310.271 31.0669 309.804 30.988 309.38 30.8229C308.957 30.6577 308.59 30.4115 308.312 30.1056C307.676 29.3583 307.364 28.4632 307.423 27.5586C307.363 26.6573 307.675 25.7652 308.312 25.0222C308.601 24.73 308.969 24.4941 309.387 24.3319C309.806 24.1698 310.264 24.0856 310.728 24.0856C311.193 24.0856 311.651 24.1698 312.069 24.3319C312.488 24.4941 312.855 24.73 313.145 25.0222C313.781 25.7653 314.093 26.6573 314.033 27.5586C314.092 28.4631 313.78 29.3581 313.145 30.1056C312.871 30.4096 312.508 30.6549 312.089 30.82C311.67 30.9852 311.208 31.0651 310.741 31.0528ZM329.5 21.4754H325.503V17.9602H321.682V21.4754H319.33V24.3802H321.682V29.9162C321.682 31.2352 322.099 32.2456 322.934 32.9472C323.768 33.6489 324.979 33.9997 326.565 33.9997C327.449 34.0061 328.33 33.9068 329.178 33.705V30.8213C328.619 30.9597 328.038 31.0306 327.453 31.0318C327.191 31.0455 326.928 31.0173 326.679 30.9486C326.43 30.88 326.2 30.7723 326.003 30.6318C325.826 30.4807 325.689 30.3018 325.602 30.1063C325.514 29.9107 325.477 29.7027 325.494 29.4952V24.3802H329.491V21.4754H329.5Z" fill="#3665F3"/>
</g>
</g>
<defs>
<filter id="filter0_b_941_14091" x="-50" y="-50" width="490" height="150" filterUnits="userSpaceOnUse" color-interpolation-filters="sRGB">
<feFlood flood-opacity="0" result="BackgroundImageFix"/>
<feGaussianBlur in="BackgroundImageFix" stdDeviation="25"/>
<feComposite in2="SourceAlpha" operator="in" result="effect1_backgroundBlur_941_14091"/>
<feBlend mode="normal" in="SourceGraphic" in2="effect1_backgroundBlur_941_14091" result="shape"/>
</filter>
<linearGradient id="paint0_linear_941_14091" x1="125.313" y1="8.17949" x2="132.294" y2="30.1531" gradientUnits="userSpaceOnUse">
<stop stop-color="#AAE627"/>
<stop offset="1" stop-color="#85B716"/>
</linearGradient>
<linearGradient id="paint1_linear_941_14091" x1="122" y1="9" x2="139" y2="44" gradientUnits="userSpaceOnUse">
<stop stop-color="#7C9CFE"/>
<stop offset="1" stop-color="#3665F3"/>
</linearGradient>
<clipPath id="clip0_941_14091">
<rect width="182" height="22" fill="white" transform="translate(147.5 14)"/>
</clipPath>
</defs>
</svg>
