<svg width="24" height="24" viewBox="0 0 24 24" fill="none" xmlns="http://www.w3.org/2000/svg">
<path d="M11.5 13C8.46783 13 6 10.5322 6 7.5C6 4.46783 8.46783 2 11.5 2C14.5322 2 17 4.46783 17 7.5C17 10.5322 14.5322 13 11.5 13ZM11.5 3.43478C9.26174 3.43478 7.43478 5.26174 7.43478 7.5C7.43478 9.73826 9.26174 11.5652 11.5 11.5652C13.7383 11.5652 15.5652 9.73826 15.5652 7.5C15.5652 5.26174 13.7383 3.43478 11.5 3.43478Z" fill="#50565E"/>
<path d="M15.3427 23C14.9776 23 14.6318 22.8655 14.382 22.6158C14.0842 22.3181 13.9497 21.8859 14.017 21.4345L14.1995 20.1379C14.2475 19.8017 14.4493 19.4079 14.6894 19.1582L18.0902 15.7583C19.4543 14.3944 20.6551 15.1724 21.2411 15.7583C21.7406 16.2577 22 16.7955 22 17.3334C22 17.8808 21.7502 18.3899 21.2411 18.8989L17.8403 22.2989C17.6001 22.539 17.1967 22.7407 16.8605 22.7887L15.5635 22.9711C15.4867 22.9903 15.4195 23 15.3427 23ZM19.656 16.4402C19.4831 16.4402 19.3294 16.5554 19.1084 16.7763L15.7077 20.1763C15.6789 20.2051 15.6309 20.3012 15.6309 20.3396L15.458 21.5401L16.6588 21.3672C16.6972 21.3576 16.7932 21.3096 16.822 21.2808L20.2228 17.8808C20.3765 17.7272 20.559 17.5063 20.559 17.3334C20.559 17.1893 20.4437 16.9876 20.2228 16.7763C19.9922 16.5458 19.8193 16.4402 19.656 16.4402Z" fill="#50565E"/>
<path d="M20.1952 19C20.1198 19 20.0444 18.992 19.9798 18.9759C18.5585 18.6773 17.428 17.8299 17.0296 16.7646C16.9111 16.4418 17.1588 16.1109 17.5895 16.0222C18.0202 15.9334 18.4616 16.119 18.5801 16.4418C18.8277 17.1036 19.5276 17.6281 20.4105 17.8138C20.8412 17.9025 21.0889 18.2415 20.9704 18.5562C20.8735 18.8225 20.5505 19 20.1952 19Z" fill="#50565E"/>
<path d="M2.74697 23C2.33863 23 2 22.64 2 22.2059C2 17.6847 6.17309 14 11.3023 14C12.3879 14 13.4635 14.1694 14.4694 14.4871C14.8678 14.6141 15.0869 15.0588 14.9674 15.4718C14.8479 15.8953 14.4296 16.1282 14.0412 16.0012C13.1647 15.7259 12.2485 15.5776 11.3023 15.5776C6.99974 15.5776 3.49394 18.5424 3.49394 22.1953C3.49394 22.64 3.15531 23 2.74697 23Z" fill="#50565E"/>
</svg>
