<svg width="22" height="22" viewBox="0 0 22 22" fill="none" xmlns="http://www.w3.org/2000/svg">
<g id="&#229;&#136;&#183;&#230;&#150;&#176; 1" clip-path="url(#clip0_163_5567)">
<path id="Vector" d="M20.1364 15.2202C21.1582 13.019 21.306 10.6261 20.719 8.45335C20.0442 5.94561 18.3835 3.70959 15.9753 2.35104L17.0436 0.0562897L10.97 1.63933L13.6864 7.26683L14.804 4.86592C16.4404 5.85923 17.5607 7.41552 18.0347 9.16783C18.4587 10.7465 18.3547 12.463 17.6135 14.0649C16.669 16.1005 14.9034 17.4866 12.8816 18.0273C12.5889 18.105 12.2917 18.1645 11.9917 18.2055L13.2455 20.7818C13.3647 20.7542 13.4829 20.7265 13.6004 20.6946C16.3841 19.9569 18.837 18.0264 20.1364 15.2202ZM7.2454 17.2345C5.58469 16.243 4.44739 14.6733 3.96877 12.9051C3.54492 11.3264 3.64975 9.60885 4.39 8.00886C5.33458 5.97237 7.10015 4.58628 9.12201 4.04559C9.45727 3.95643 9.79865 3.89234 10.1437 3.85126L8.89355 1.26158C8.72953 1.29641 8.56549 1.33378 8.40324 1.37744C5.62046 2.11676 3.16668 4.04723 1.8663 6.85346C0.846436 9.05385 0.698485 11.4476 1.28552 13.6194L1.28732 13.6266C1.96752 16.1512 3.64793 18.3988 6.08299 19.7538L5.07295 21.9435L11.1403 20.3391L8.40508 14.7214L7.2454 17.2345Z" fill="white"/>
</g>
<defs>
<clipPath id="clip0_163_5567">
<rect width="22" height="22" fill="white"/>
</clipPath>
</defs>
</svg>
