<svg width="46" height="46" viewBox="0 0 46 46" fill="none" xmlns="http://www.w3.org/2000/svg">
<g id="&#230;&#156;&#186;&#229;&#153;&#168;&#228;&#186;&#186; 1">
<rect width="46" height="46" rx="23" fill="white"/>
<path id="Vector" d="M14.0406 35C13.4752 35 13 34.524 13 33.9577V28.0166C13 22.4923 17.4849 18 23 18C28.5151 18 33 22.4923 33 28.0166V33.9577C33 34.524 32.5248 35 31.9594 35H14.0406Z" fill="#FF7003"/>
<g id="Vector_2" filter="url(#filter0_d_864_1788)">
<path d="M27.6278 28C26.8731 28 26.2556 27.2641 26.2556 26.3647V24.6353C26.2556 23.7359 26.8731 23 27.6278 23C28.3825 23 29 23.7359 29 24.6353V26.3647C29 27.2641 28.3825 28 27.6278 28ZM18.3722 28C17.6175 28 17 27.2641 17 26.3647V24.6353C17 23.7359 17.6175 23 18.3722 23C19.1269 23 19.7444 23.7359 19.7444 24.6353V26.3647C19.7444 27.2641 19.1269 28 18.3722 28Z" fill="#0D0D0D"/>
</g>
<path id="Vector_3" d="M31.7761 16.6367L33.513 13.5539C34.4366 13.5573 35.3368 13.0668 35.8388 12.1811C36.585 10.856 36.1567 9.15617 34.8783 8.3795C33.6033 7.60624 31.9635 8.05249 31.2173 9.37418C30.7187 10.2599 30.7488 11.3159 31.2039 12.1504L29.5273 15.1243C27.517 14.0405 25.2765 13.4744 23.0017 13.4755C20.8261 13.4746 18.6805 13.9926 16.7371 14.988L15.1408 12.1538C15.3732 11.7289 15.4941 11.2502 15.4917 10.7639C15.4894 10.2776 15.3639 9.80014 15.1274 9.37759C14.3811 8.05249 12.7414 7.60624 11.4664 8.38291C10.1913 9.15617 9.75965 10.8594 10.5059 12.1845C10.7395 12.6024 11.0779 12.9497 11.4865 13.1909C11.8951 13.4321 12.3594 13.5585 12.8317 13.5573L14.4615 16.4528C11.1417 19.0553 9 23.1396 9 27.7247V33.5497C9 36.5542 11.4028 39 14.3544 39H31.6456C34.5972 39 37 36.5542 37 33.5497V27.7247C36.9967 23.2486 34.9586 19.2495 31.7761 16.6367ZM34.3195 33.5531C34.3195 35.0553 33.1181 36.2783 31.6423 36.2783H14.3544C12.8786 36.2783 11.6772 35.0553 11.6772 33.5531V27.7281C11.6772 21.3717 16.7571 16.2041 22.9983 16.2041C29.2429 16.2041 34.3195 21.3751 34.3195 27.7281V33.5531Z" fill="#0D0D0D"/>
<path id="Vector_4" d="M25.6667 34H20.3333C19.6 34 19 33.3374 19 32.5276V32.4724C19 31.6626 19.6 31 20.3333 31H25.6667C26.4 31 27 31.6626 27 32.4724V32.5276C27 33.3374 26.4 34 25.6667 34Z" fill="#0D0D0D"/>
<path id="Vector_5" d="M24.4348 11.9968C24.0528 11.9968 23.6939 11.8343 23.4437 11.5516L22.4361 10.4142L21.7183 11.4378C21.5971 11.6108 21.4352 11.7522 21.2466 11.8501C21.058 11.948 20.8482 11.9994 20.6351 12H18.3171C17.5894 12 17 11.4183 17 10.7001C17 9.98198 17.5894 9.4003 18.3171 9.4003H19.9469L21.2343 7.56101C21.4648 7.22954 21.8369 7.02482 22.2452 7.00207C22.6534 6.97932 23.0453 7.14505 23.312 7.44727L25.034 9.39705L27.6681 9.3808H27.678C28.0273 9.37951 28.3628 9.51521 28.6107 9.75807C28.8587 10.0009 28.9987 10.331 29 10.6758C29.0013 11.0205 28.8638 11.3517 28.6177 11.5963C28.3717 11.841 28.0372 11.9792 27.6879 11.9805L24.4479 12C24.4413 11.9968 24.4381 11.9968 24.4348 11.9968Z" fill="#0D0D0D"/>
</g>
<defs>
<filter id="filter0_d_864_1788" x="13" y="23" width="20" height="13" filterUnits="userSpaceOnUse" color-interpolation-filters="sRGB">
<feFlood flood-opacity="0" result="BackgroundImageFix"/>
<feColorMatrix in="SourceAlpha" type="matrix" values="0 0 0 0 0 0 0 0 0 0 0 0 0 0 0 0 0 0 127 0" result="hardAlpha"/>
<feOffset dy="4"/>
<feGaussianBlur stdDeviation="2"/>
<feComposite in2="hardAlpha" operator="out"/>
<feColorMatrix type="matrix" values="0 0 0 0 0 0 0 0 0 0 0 0 0 0 0 0 0 0 0.25 0"/>
<feBlend mode="normal" in2="BackgroundImageFix" result="effect1_dropShadow_864_1788"/>
<feBlend mode="normal" in="SourceGraphic" in2="effect1_dropShadow_864_1788" result="shape"/>
</filter>
</defs>
</svg>
