<svg width="24" height="24" viewBox="0 0 24 24" fill="none" xmlns="http://www.w3.org/2000/svg">
<path d="M3.81152 9.28237H20.188V7.87061H3.81152V9.28237ZM3.81152 13.3765H9.59976V11.9647H3.81152V13.3765ZM3.81152 15.7765H9.59976V14.3647H3.81152V15.7765Z" fill="#50565E"/>
<path d="M23.1531 5.45878C23.1531 4.04701 22.0237 2.9176 20.6119 2.9176H3.24723C1.83547 2.9176 0.706055 4.04701 0.706055 5.45878V18.6117C0.706055 20.0235 1.83547 21.1529 3.24723 21.1529H20.6119C22.0237 21.1529 23.1531 20.0235 23.1531 18.6117V16.6235H21.7413V18.6117C21.7413 19.1764 21.3178 19.7411 20.6119 19.7411H3.24723C2.68253 19.7411 2.11782 19.3176 2.11782 18.6117V5.45878C2.11782 4.89407 2.54135 4.32937 3.24723 4.32937H20.6119C21.1766 4.32937 21.7413 4.7529 21.7413 5.45878V11.6823H23.1531V5.45878Z" fill="#50565E"/>
<path d="M23.1528 13.3765H14.3999V14.7882H23.1528V13.3765Z" fill="#50565E"/>
<path d="M17.0824 11.9647L16.0942 10.9764L12.9883 14.0823L16.0942 17.1882L17.0824 16.2L14.9648 14.0823L17.0824 11.9647Z" fill="#50565E"/>
</svg>
