<svg width="24" height="24" viewBox="0 0 24 24" fill="none" xmlns="http://www.w3.org/2000/svg">
<g clip-path="url(#clip0_958_646)">
<path d="M18.0578 18.325C15.1172 18.325 11.9925 17.3402 11.9925 15.5147C11.9925 13.6892 15.117 12.7045 18.0578 12.7045C20.9986 12.7045 24.1231 13.6892 24.1231 15.5147C24.1231 17.3402 20.9975 18.325 18.0578 18.325ZM18.0578 13.8717C15.0678 13.8717 13.1606 14.845 13.1606 15.5147C13.1606 16.1844 15.0684 17.1577 18.0583 17.1577C21.0483 17.1577 22.9547 16.185 22.9547 15.5147C22.9547 14.8444 21.0472 13.8717 18.0578 13.8717ZM18.0578 22.9969C15.1172 22.9969 11.9925 22.0119 11.9925 20.1864C11.9925 19.7747 12.1629 19.1643 12.9753 18.5942L13.6456 19.549C13.3328 19.7697 13.1606 19.9957 13.1606 20.1864C13.1606 20.8564 15.0678 21.8291 18.0578 21.8291C21.0477 21.8291 22.9547 20.8558 22.9547 20.1858C22.9547 19.9952 22.782 19.7691 22.4692 19.5492L23.1394 18.5945C23.9515 19.1645 24.1222 19.7739 24.1222 20.1864C24.122 22.0119 20.9975 22.9969 18.0578 22.9969ZM18.0578 20.7224C15.1172 20.7224 11.9925 19.7377 11.9925 17.9122C11.9925 17.5002 12.1629 16.8898 12.9753 16.3198L13.6456 17.2745C13.3328 17.4955 13.1606 17.7215 13.1606 17.9122C13.1606 18.5819 15.0678 19.5546 18.0578 19.5546C21.0477 19.5546 22.9547 18.5813 22.9547 17.9116C22.9547 17.721 22.782 17.4949 22.4692 17.2748L23.1394 16.32C23.9515 16.8901 24.1222 17.4994 24.1222 17.9122C24.122 19.7377 20.9975 20.7224 18.0578 20.7224ZM16.1194 4.02134H7.69542C7.38597 4.0209 7.08932 3.89777 6.87051 3.67896C6.6517 3.46015 6.52857 3.1635 6.52813 2.85405V1.16729C6.5285 0.857914 6.65152 0.561311 6.87023 0.342499C7.08894 0.123687 7.38548 0.000520102 7.69485 0L16.1189 0C16.4283 0.000371702 16.725 0.123482 16.9437 0.342318C17.1625 0.561154 17.2856 0.857843 17.2859 1.16729V2.85405C17.2855 3.16338 17.1625 3.45994 16.9439 3.67874C16.7252 3.89755 16.4287 4.02075 16.1194 4.02134ZM7.69542 1.16729V2.85405H16.1175L16.1194 1.16729H7.69542ZM11.145 22H3.62774C3.16356 21.9995 2.71855 21.8149 2.39032 21.4866C2.0621 21.1584 1.87747 20.7134 1.87695 20.2492V2.74398C1.87747 2.2798 2.0621 1.83478 2.39032 1.50656C2.71855 1.17834 3.16356 0.993711 3.62774 0.993191H4.83097V2.16048H3.62774C3.47301 2.16055 3.32464 2.22205 3.21523 2.33146C3.10581 2.44088 3.04431 2.58925 3.04424 2.74398V20.2492C3.04439 20.4039 3.10591 20.5522 3.21531 20.6616C3.3247 20.771 3.47303 20.8326 3.62774 20.8327H11.145V22ZM21.9368 12.1386H20.7703V2.74398C20.7702 2.58927 20.7086 2.44094 20.5992 2.33155C20.4899 2.22215 20.3415 2.16063 20.1868 2.16048H18.839V0.993191H20.1868C20.651 0.993711 21.096 1.17834 21.4242 1.50656C21.7525 1.83478 21.9371 2.2798 21.9376 2.74398L21.9368 12.1386ZM6.39615 6.57754H14.5419V7.74482H6.39615V6.57754ZM6.24396 10.145H18.1193V11.3123H6.24396V10.145Z" fill="#50565E" stroke="#50565E" stroke-width="0.3"/>
</g>
<defs>
<clipPath id="clip0_958_646">
<rect width="24" height="24" fill="white"/>
</clipPath>
</defs>
</svg>
