<svg width="96" height="96" viewBox="0 0 96 96" fill="none" xmlns="http://www.w3.org/2000/svg">
<rect width="96" height="96" rx="48" fill="white"/>
<path d="M25.4767 76.0001L25 41.6838L36.2021 49.6753V69.6539L25.4767 76.0001Z" fill="#F4AE01"/>
<path d="M60.0363 57.1966C62.658 54.3761 63.1347 53.7948 64.2705 51.7963C66.1667 48.46 67.0876 44.6705 66.9311 40.8489C66.7746 37.0274 65.5466 33.3235 63.3838 30.1489C61.2209 26.9742 58.2078 24.4531 54.6793 22.8657C51.1508 21.2783 47.2451 20.6868 43.3962 21.1568C39.5472 21.6269 35.9059 23.1402 32.8767 25.5286C29.8475 27.9169 27.5491 31.0867 26.2369 34.6858C24.9247 38.2849 24.6502 42.1723 25.4438 45.916L37.0352 43.5265C36.6897 41.8965 36.8092 40.2039 37.3805 38.6369C37.9518 37.0698 38.9526 35.6897 40.2715 34.6498C41.5904 33.6099 43.1758 32.951 44.8517 32.7464C46.5275 32.5417 48.228 32.7992 49.7643 33.4904C51.3007 34.1815 52.6126 35.2792 53.5543 36.6615C54.496 38.0437 55.0306 39.6564 55.0988 41.3203C55.1669 42.9842 54.7659 44.6341 53.9403 46.0868C53.1148 47.5394 51.8969 48.7379 50.4221 49.549L60.0363 57.1966Z" fill="url(#paint0_linear_944_14320)"/>
<path fill-rule="evenodd" clip-rule="evenodd" d="M35.0104 59.312C31.6736 57.51 25 51.3675 25 41.2137C25 28.5214 36.9171 21 45.2591 21C53.3627 21 60.7513 24.9957 64.0881 31.3419C61.3074 30.0883 52.6 26.453 44.7824 29.4615C36.9648 32.4701 36.2815 39.9601 36.9171 43.3291C37.3143 44.5826 38.7285 47.5598 41.2073 49.4402C41.2074 49.4403 41.2075 49.4404 41.2077 49.4405C41.2679 49.4862 41.3263 49.5332 41.3831 49.5816L71 73.4145H52.4093L35.0104 59.312Z" fill="url(#paint1_linear_944_14320)"/>
<defs>
<linearGradient id="paint0_linear_944_14320" x1="40.0155" y1="19.5897" x2="52.1003" y2="57.2956" gradientUnits="userSpaceOnUse">
<stop stop-color="#AAE627"/>
<stop offset="1" stop-color="#85B716"/>
</linearGradient>
<linearGradient id="paint1_linear_944_14320" x1="34.3704" y1="21" x2="63.7477" y2="80.9532" gradientUnits="userSpaceOnUse">
<stop stop-color="#7C9CFE"/>
<stop offset="1" stop-color="#3665F3"/>
</linearGradient>
</defs>
</svg>
