<svg width="24" height="24" viewBox="0 0 24 24" fill="none" xmlns="http://www.w3.org/2000/svg">
<g id="shouyi 1">
<path id="Vector" d="M8.45416 8H9.2662C9.51495 8 9.72036 7.77362 9.72036 7.49554V5.50446C9.72036 5.22816 9.51655 5 9.2662 5H8.45416C8.20542 5 8 5.22638 8 5.50446V7.49733C8 7.77362 8.20381 8 8.45416 8ZM14.7338 8H15.5458C15.7946 8 16 7.77362 16 7.49554V5.50446C16 5.22816 15.7962 5 15.5458 5H14.7338C14.4851 5 14.2796 5.22638 14.2796 5.50446V7.49733C14.2796 7.77362 14.4835 8 14.7338 8Z" fill="black"/>
<path id="Vector_2" d="M17.6908 7H16.751V7.79912C16.751 8.13945 16.5059 8.41962 16.2049 8.41962H14.6332C14.3322 8.41962 14.0871 8.14133 14.0871 7.79912V7H9.91286V7.79912C9.91286 8.13945 9.66783 8.41962 9.3668 8.41962H7.7951C7.49406 8.41962 7.24903 8.14133 7.24903 7.79912V7H6.30916C5.58807 7 5 7.66938 5 8.48731V17.5127C5 18.3306 5.58982 19 6.30916 19H17.6908C18.4119 19 19 18.3306 19 17.5127V8.48731C19 7.6675 18.4102 7 17.6908 7ZM9.68709 17.5202C9.68709 17.6293 9.60483 17.7176 9.50331 17.7176H8.15914C8.05763 17.7176 7.97537 17.6293 7.97537 17.5202V14.5644C7.97537 14.4553 8.05763 14.367 8.15914 14.367H9.50331C9.60483 14.367 9.68709 14.4553 9.68709 14.5644V17.5202ZM12.925 17.477C12.925 17.6086 12.8252 17.7176 12.701 17.7176H11.4391C11.3165 17.7176 11.215 17.6105 11.215 17.477V12.9718C11.215 12.8402 11.3148 12.7311 11.4391 12.7311H12.7027C12.8252 12.7311 12.9267 12.8383 12.9267 12.9718V17.477H12.925ZM12.3842 11.1742L11.8399 10.2604C11.7716 10.1965 11.6753 10.189 11.6018 10.2416L8.2414 11.7684C8.2134 11.7872 8.1819 11.7966 8.15214 11.7966C8.09264 11.7966 8.03488 11.7609 8.00338 11.6988C7.95437 11.6029 7.98062 11.4788 8.06288 11.4224L11.4233 9.89564C11.6228 9.7565 11.8801 9.77719 12.0604 9.94829L12.6047 10.8621C12.7255 10.9749 12.8917 11.0069 13.037 10.9448L15.8601 9.7377C15.9511 9.69821 16.0509 9.75274 16.0841 9.85616C16.1174 9.95957 16.0719 10.0762 15.9809 10.1156L13.1578 11.3228C12.8952 11.4337 12.5994 11.3773 12.3842 11.1742ZM16.0929 17.4582C16.0929 17.6011 15.9844 17.7176 15.8514 17.7176H14.6245C14.4914 17.7176 14.3829 17.6011 14.3829 17.4582V12.1558C14.3829 12.0128 14.4914 11.8963 14.6245 11.8963H15.8531C15.9861 11.8963 16.0946 12.0128 16.0946 12.1558V17.4582H16.0929Z" fill="black"/>
</g>
</svg>
