<svg width="24" height="24" viewBox="0 0 24 24" fill="none" xmlns="http://www.w3.org/2000/svg">
<path d="M22.5602 7.5395C22.2768 7.23872 21.9002 7.14919 21.5002 7.14919H3.50015C3.09937 7.14919 2.72171 6.92661 2.43976 6.62669C2.15562 6.32513 2.00054 5.86841 2.00054 5.44349C2.00054 5.01802 2.15562 4.65638 2.4389 4.3556C2.72171 4.05482 3.09937 3.96529 3.50015 3.96529H7.50031C7.77625 3.96529 8.00015 3.72756 8.00015 3.4349C8.00015 3.14209 7.77624 2.90365 7.50031 2.90365H3.50015C2.83242 2.90365 2.20437 3.12287 1.7314 3.62459C1.25976 4.12528 1 4.7356 1 5.44349C1 5.48194 1.00859 5.51872 1.01023 5.55716H1V19.794C1 20.5037 1.25977 21.2452 1.73141 21.746C2.20438 22.2476 2.83243 22.5988 3.50016 22.5988H21.5002C21.9002 22.5988 22.2777 22.3574 22.5602 22.0566C22.8427 21.7558 22.9999 21.2807 22.9999 20.8547V8.58896C22.9999 8.16341 22.8443 7.83943 22.5602 7.5395ZM22.0002 20.8557C22.0002 20.9971 21.948 21.206 21.853 21.306C21.7584 21.4068 21.6327 21.5371 21.5002 21.5371H3.50015C3.09937 21.5371 2.72171 21.2966 2.4389 20.9954C2.15562 20.6954 2.00054 20.2196 2.00054 19.794V7.60036C2.43249 7.96497 2.94984 8.21067 3.50015 8.21067H21.5002C21.6327 8.21067 21.7584 8.18989 21.853 8.28989C21.9471 8.38989 22.0002 8.44755 22.0002 8.58895V20.8557ZM18.8993 3.96443H18.9993C19.1334 3.96443 19.2587 3.94374 19.3531 4.0446C19.4474 4.14523 19.4996 4.20201 19.4996 4.34365V5.13568C19.4996 5.42834 19.7234 5.66677 20.0002 5.66677C20.2762 5.66677 20.4996 5.42919 20.4996 5.13568V4.34365C20.4996 3.9181 20.3443 3.59404 20.0606 3.29412C19.7768 2.99342 19.3999 2.90365 18.9993 2.90365H18.8993C18.6224 2.90365 18.3993 3.14138 18.3993 3.4349C18.3993 3.72842 18.6224 3.96443 18.8993 3.96443ZM8.22187 6.40349L13.724 1.51818C13.8487 1.45263 13.9896 1.44537 14.1196 1.49576C14.2502 1.54701 14.3518 1.65107 14.4052 1.78693L16.7693 6.13795L17.6905 5.72592L15.3268 1.3742C15.1671 0.971785 14.8534 0.653505 14.4668 0.500765C14.0799 0.347795 13.6462 0.372565 13.2774 0.566935L7.77672 5.45161L8.22187 6.40349ZM18.7993 17.7168H13.9999C13.6684 17.7168 13.3999 17.9902 13.3999 18.3277C13.3999 18.6644 13.6684 18.9383 13.9999 18.9383H18.7993C19.1309 18.9383 19.3996 18.6644 19.3996 18.3277C19.3996 17.9894 19.1309 17.7168 18.7993 17.7168Z" fill="#50565E" stroke="#50565E" stroke-width="0.3"/>
</svg>
