<svg width="24" height="24" viewBox="0 0 24 24" fill="none" xmlns="http://www.w3.org/2000/svg">
<g clip-path="url(#clip0_958_293)">
<path d="M23.169 8.31025C23.2355 8.1108 23.302 7.91136 23.302 7.64543C23.302 6.91413 22.7037 6.31579 21.9724 6.31579C21.2411 6.31579 20.6427 6.91413 20.6427 7.64543C20.6427 8.37673 21.2411 8.97507 21.9724 8.97507C22.1718 9.83934 22.3048 10.7701 22.3048 11.6343C22.3048 17.3518 17.651 21.9391 12.0001 21.9391C10.2051 21.9391 8.47653 21.4737 6.94744 20.6094L6.68151 20.4765L2.89204 21.9391L4.62057 18.7479L4.28816 18.349C2.69259 16.4875 1.76184 14.0942 1.76184 11.6343C1.76184 5.9169 6.41558 1.32964 12.0666 1.32964C14.2605 1.32964 16.3214 1.99446 18.0499 3.25762L17.3851 3.98892L20.5098 4.72022L19.579 1.52909L18.9142 2.26039C16.9197 0.797784 14.4599 0 12.0001 0C5.55132 0 0.365723 5.1856 0.365723 11.6343C0.365723 14.2271 1.22999 16.7535 2.89204 18.8144L0.565169 23.867L6.54855 21.8726C8.2106 22.7368 10.1386 23.2687 12.0001 23.2687C18.4488 23.2687 23.6344 18.0166 23.6344 11.6343C23.6344 10.5042 23.5015 9.37396 23.169 8.31025ZM14.061 11.7008L15.1247 14.9585H16.6538L12.7979 4.32133H11.2023L7.34633 14.9585H8.80894L9.93913 11.7008H14.061ZM10.8034 8.97507C11.2023 7.77839 11.6012 6.6482 11.9336 5.38504H12.0001C12.399 6.6482 12.7314 7.77839 13.1303 8.97507L13.6621 10.5706H10.2051L10.8034 8.97507ZM6.68151 16.2881H17.3186V17.6177H6.68151V16.2881Z" fill="#50565E"/>
</g>
<defs>
<clipPath id="clip0_958_293">
<rect width="24" height="24" fill="white"/>
</clipPath>
</defs>
</svg>
