<svg width="472" height="93" viewBox="0 0 472 93" fill="none" xmlns="http://www.w3.org/2000/svg">
<g clip-path="url(#clip0_1888_2001)">
<path d="M128.802 32.9676L120.208 35.3964C120.156 35.4116 120.1 35.4156 120.046 35.4082C119.991 35.4007 119.939 35.3819 119.892 35.353C119.845 35.3241 119.805 35.2857 119.773 35.2403C119.742 35.1948 119.72 35.1433 119.71 35.089C119.37 33.7026 118.642 32.4435 117.612 31.4612C116.37 30.2212 114.507 29.6063 111.992 29.6063C110.323 29.5289 108.681 30.0601 107.37 31.1025C106.823 31.5189 106.378 32.0559 106.069 32.6723C105.76 33.2888 105.595 33.9682 105.588 34.6586C105.588 37.0976 107.129 38.604 110.21 39.1779L116.482 40.3667C120.291 40.9077 123.813 42.7106 126.49 45.4906C128.788 47.9406 130.054 51.1909 130.023 54.56C130.015 56.5291 129.592 58.474 128.783 60.2668C127.974 62.0596 126.797 63.6596 125.33 64.9617C122.207 67.9541 118.006 69.4503 112.725 69.4503C106.82 69.4503 102.252 67.9097 99.0211 64.8285C96.0814 62.2154 94.1644 58.6325 93.6148 54.724C93.6018 54.6242 93.6258 54.5231 93.6821 54.44C93.7384 54.3568 93.8232 54.2974 93.9202 54.2731L102.707 52.1415C102.762 52.1281 102.819 52.1267 102.875 52.1374C102.931 52.1481 102.984 52.1708 103.03 52.2038C103.076 52.2368 103.115 52.2794 103.143 52.3288C103.172 52.3782 103.19 52.4331 103.195 52.49C103.441 54.5378 104.392 56.4342 105.883 57.8496C107.492 59.3732 109.817 60.1383 112.858 60.1452C114.568 60.2324 116.259 59.7537 117.673 58.7822C118.236 58.3809 118.693 57.8469 119.003 57.2271C119.314 56.6072 119.469 55.9202 119.455 55.2262C119.473 54.6473 119.363 54.0715 119.135 53.5401C118.906 53.0087 118.563 52.5346 118.131 52.1518C117.08 51.2502 115.801 50.6611 114.436 50.4506L108.032 49.2824C104.472 48.7355 101.189 47.0292 98.6851 44.4248C96.4399 41.9924 95.2206 38.7775 95.2845 35.4579C95.2494 33.3919 95.6768 31.3445 96.5352 29.4676C97.3936 27.5906 98.6608 25.9323 100.243 24.6156C103.513 21.7481 107.727 20.21 112.063 20.3012C114.585 20.264 117.094 20.6555 119.486 21.4592C121.422 22.083 123.196 23.1333 124.678 24.5336C125.868 25.7074 126.879 27.0506 127.682 28.52C128.338 29.7603 128.815 31.089 129.097 32.4655C129.122 32.5714 129.105 32.6829 129.05 32.7766C128.995 32.8702 128.906 32.9387 128.802 32.9676Z" fill="#ffffff"/>
<path d="M145.601 81.051H136.366C136.313 81.051 136.261 81.0403 136.212 81.0196C136.163 80.9989 136.119 80.9685 136.082 80.9303C136.045 80.8921 136.016 80.8468 135.997 80.7971C135.977 80.7475 135.968 80.6944 135.969 80.641V35.7961C135.968 35.7427 135.977 35.6897 135.997 35.64C136.016 35.5903 136.045 35.545 136.082 35.5068C136.119 35.4686 136.163 35.4383 136.212 35.4175C136.261 35.3968 136.313 35.3861 136.366 35.3862H145.265C145.373 35.3862 145.477 35.4293 145.553 35.5062C145.629 35.5831 145.672 35.6874 145.672 35.7961V37.6202C145.67 37.7005 145.693 37.7795 145.736 37.8469C145.78 37.9142 145.842 37.9668 145.916 37.9978C145.99 38.0288 146.071 38.0367 146.149 38.0205C146.227 38.0044 146.299 37.9648 146.354 37.9071C147.237 37.0384 148.273 36.3433 149.409 35.8576C151.262 35.0124 153.279 34.5924 155.314 34.6278C157.409 34.5377 159.498 34.9239 161.424 35.7577C163.351 36.5916 165.066 37.8517 166.442 39.4443C169.191 42.6622 170.566 46.7955 170.566 51.8443C170.737 56.4097 169.167 60.8682 166.177 64.3058C164.769 65.8993 163.031 67.1628 161.086 68.0073C159.14 68.8519 157.035 69.257 154.917 69.1941C151.258 69.1941 148.513 68.3298 146.68 66.6014C146.624 66.5472 146.553 66.5108 146.477 66.4967C146.401 66.4825 146.322 66.4913 146.25 66.5218C146.179 66.5524 146.118 66.6034 146.075 66.6685C146.032 66.7337 146.008 66.8101 146.008 66.8883V80.641C146.008 80.6949 145.998 80.7482 145.977 80.7979C145.957 80.8476 145.927 80.8928 145.889 80.9309C145.851 80.969 145.806 80.9992 145.757 81.0198C145.707 81.0404 145.654 81.051 145.601 81.051ZM158.582 57.9521C159.33 57.138 159.906 56.1797 160.275 55.1352C160.644 54.0907 160.799 52.9816 160.73 51.8751C160.796 50.7719 160.64 49.6668 160.271 48.626C159.902 47.5852 159.327 46.6302 158.582 45.8186C157.884 45.1232 157.053 44.5769 156.14 44.2124C155.227 43.8479 154.25 43.6727 153.267 43.6972C152.295 43.6769 151.329 43.8543 150.426 44.2188C149.523 44.5833 148.703 45.1274 148.014 45.8186C147.269 46.6302 146.694 47.5852 146.325 48.626C145.956 49.6668 145.8 50.7719 145.866 51.8751C145.797 52.9816 145.952 54.0907 146.321 55.1352C146.69 56.1797 147.266 57.138 148.014 57.9521C148.696 58.6555 149.514 59.2104 150.418 59.5824C151.321 59.9543 152.291 60.1354 153.267 60.1144C154.253 60.1384 155.233 59.9589 156.147 59.587C157.061 59.2151 157.89 58.6587 158.582 57.9521Z" fill="#ffffff"/>
<path d="M186.673 68.4255H177.448C177.342 68.4228 177.241 68.3784 177.167 68.3018C177.093 68.2253 177.051 68.1225 177.051 68.0155V20.7008C177.051 20.5948 177.093 20.4932 177.168 20.4182C177.242 20.3433 177.343 20.3012 177.448 20.3012H186.683C186.736 20.2998 186.789 20.3091 186.838 20.3286C186.887 20.3481 186.932 20.3773 186.97 20.4145C187.008 20.4518 187.038 20.4963 187.059 20.5455C187.08 20.5946 187.09 20.6475 187.09 20.7008V68.0155C187.09 68.0703 187.079 68.1244 187.058 68.1748C187.037 68.2252 187.006 68.2709 186.967 68.3091C186.928 68.3473 186.882 68.3773 186.832 68.3972C186.781 68.4172 186.727 68.4268 186.673 68.4255Z" fill="#ffffff"/>
<path d="M196.793 29.4731C195.69 28.3624 195.071 26.8567 195.071 25.2868C195.071 23.7169 195.69 22.2112 196.793 21.1005C197.615 20.2748 198.657 19.7059 199.793 19.4623C200.93 19.2186 202.111 19.3107 203.197 19.7273L203.309 19.7785C204.711 20.4378 205.817 21.6028 206.407 23.043C206.997 24.4833 207.029 26.094 206.496 27.5567C206.5 27.5976 206.5 27.6388 206.496 27.6797C205.983 28.726 205.192 29.6087 204.21 30.2293C203.229 30.8499 202.096 31.1841 200.937 31.1947C200.165 31.2111 199.399 31.0666 198.686 30.7703C197.973 30.474 197.328 30.0323 196.793 29.4731ZM205.569 68.4152H196.335C196.282 68.4152 196.229 68.4046 196.18 68.3838C196.131 68.3631 196.087 68.3328 196.05 68.2946C196.013 68.2564 195.984 68.2111 195.965 68.1614C195.945 68.1117 195.936 68.0586 195.938 68.0053V35.796C195.936 35.7427 195.945 35.6896 195.965 35.6399C195.984 35.5903 196.013 35.545 196.05 35.5068C196.087 35.4686 196.131 35.4382 196.18 35.4175C196.229 35.3968 196.282 35.3861 196.335 35.3861H205.569C205.677 35.3861 205.781 35.4293 205.857 35.5062C205.933 35.5831 205.976 35.6873 205.976 35.796V68.0155C205.976 68.0702 205.966 68.1244 205.944 68.1748C205.923 68.2252 205.892 68.2709 205.854 68.3091C205.815 68.3473 205.769 68.3773 205.718 68.3972C205.667 68.4172 205.613 68.4268 205.559 68.4255L205.569 68.4152Z" fill="#ffffff"/>
<path d="M226.767 26.1528V34.9352C226.765 34.9886 226.775 35.0417 226.794 35.0913C226.813 35.141 226.842 35.1863 226.879 35.2245C226.916 35.2627 226.961 35.2931 227.009 35.3138C227.058 35.3345 227.111 35.3452 227.164 35.3452H232.764C232.872 35.3452 232.975 35.3883 233.052 35.4652C233.128 35.5421 233.171 35.6464 233.171 35.7551V43.7792C233.171 43.8879 233.128 43.9922 233.052 44.0691C232.975 44.1459 232.872 44.1891 232.764 44.1891H227.164C227.111 44.1877 227.059 44.1971 227.01 44.2167C226.961 44.2363 226.917 44.2656 226.88 44.303C226.843 44.3404 226.814 44.3851 226.794 44.4342C226.775 44.4833 226.765 44.5359 226.767 44.5888V56.5481C226.767 58.8539 227.968 60.0017 230.391 60.0017C231.116 59.9966 231.839 59.9211 232.55 59.7762C232.608 59.7643 232.668 59.7652 232.726 59.7791C232.784 59.7929 232.838 59.8193 232.884 59.8564C232.931 59.8935 232.969 59.9405 232.995 59.9939C233.022 60.0473 233.037 60.1059 233.038 60.1657V67.7799C233.039 67.8588 233.017 67.9363 232.976 68.0034C232.934 68.0704 232.875 68.1244 232.804 68.159C231.214 68.7694 229.516 69.0483 227.815 68.9789C226.357 69.0588 224.897 68.8473 223.52 68.3566C222.143 67.8659 220.876 67.1056 219.792 66.1197C218.795 65.0986 218.019 63.8799 217.514 62.5409C217.009 61.2018 216.787 59.7718 216.86 58.3415V44.6298C216.86 44.5764 216.85 44.5236 216.829 44.4744C216.808 44.4253 216.778 44.3807 216.74 44.3435C216.702 44.3062 216.657 44.277 216.608 44.2576C216.559 44.2381 216.506 44.2288 216.453 44.2301H211.444C211.337 44.2275 211.236 44.1831 211.162 44.1065C211.088 44.0299 211.047 43.9272 211.047 43.8202V35.7961C211.047 35.6891 211.088 35.5864 211.162 35.5098C211.236 35.4332 211.337 35.3888 211.444 35.3862H212.696C213.4 35.4352 214.105 35.3264 214.762 35.0677C215.419 34.8089 216.01 34.4067 216.494 33.8899C217.382 32.7985 217.839 31.4155 217.777 30.006V26.1528C217.776 26.0994 217.787 26.0466 217.808 25.9974C217.828 25.9482 217.858 25.9037 217.896 25.8665C217.934 25.8292 217.979 25.8 218.029 25.7805C218.078 25.7611 218.131 25.7517 218.184 25.7531H226.329C226.384 25.7473 226.44 25.7534 226.493 25.7709C226.546 25.7884 226.595 25.8169 226.636 25.8546C226.678 25.8923 226.711 25.9383 226.733 25.9897C226.756 26.0411 226.767 26.0966 226.767 26.1528Z" fill="#ffffff"/>
<path d="M293.251 68.4254H283.823C283.77 68.4254 283.717 68.4148 283.667 68.3942C283.618 68.3736 283.573 68.3434 283.535 68.3054C283.497 68.2673 283.467 68.2221 283.447 68.1724C283.426 68.1226 283.416 68.0693 283.416 68.0155V39.3213C283.423 39.2237 283.395 39.1267 283.336 39.0487C283.277 38.9706 283.192 38.9171 283.097 38.8981C283.001 38.8792 282.902 38.8961 282.818 38.9458C282.735 38.9955 282.672 39.0744 282.642 39.1676L271.3 68.159C271.274 68.2365 271.225 68.3039 271.159 68.3517C271.094 68.3995 271.015 68.4253 270.933 68.4254H263.022C262.941 68.4253 262.862 68.4008 262.795 68.3552C262.728 68.3095 262.676 68.2448 262.646 68.1692L251.314 39.5467C251.279 39.4598 251.215 39.3877 251.133 39.3426C251.051 39.2974 250.956 39.282 250.864 39.2988C250.772 39.3156 250.689 39.3636 250.628 39.4349C250.567 39.5061 250.533 39.5963 250.53 39.6902V68.0155C250.531 68.0689 250.522 68.1219 250.503 68.1716C250.483 68.2213 250.454 68.2666 250.417 68.3048C250.38 68.343 250.336 68.3733 250.287 68.3941C250.238 68.4148 250.186 68.4254 250.133 68.4254H241.031C240.978 68.4254 240.925 68.4148 240.876 68.3941C240.828 68.3733 240.783 68.343 240.746 68.3048C240.709 68.2666 240.68 68.2213 240.661 68.1716C240.642 68.1219 240.632 68.0689 240.634 68.0155V21.7051C240.632 21.6517 240.642 21.5987 240.661 21.549C240.68 21.4993 240.709 21.454 240.746 21.4158C240.783 21.3776 240.828 21.3473 240.876 21.3265C240.925 21.3058 240.978 21.2951 241.031 21.2952H253.961C254.042 21.2953 254.121 21.3198 254.188 21.3654C254.255 21.4111 254.307 21.4758 254.338 21.5514L266.729 52.1824C266.757 52.2585 266.808 52.324 266.874 52.3703C266.941 52.4165 267.019 52.4413 267.1 52.4413C267.181 52.4413 267.26 52.4165 267.326 52.3703C267.392 52.324 267.443 52.2585 267.472 52.1824L279.262 21.5514C279.292 21.4758 279.344 21.4111 279.411 21.3654C279.478 21.3198 279.557 21.2953 279.638 21.2952H293.292C293.4 21.2952 293.503 21.3384 293.58 21.4152C293.656 21.4921 293.699 21.5964 293.699 21.7051V68.0155C293.699 68.073 293.687 68.1299 293.665 68.1825C293.642 68.2351 293.608 68.2822 293.566 68.3209C293.523 68.3595 293.474 68.3888 293.419 68.4068C293.365 68.4248 293.308 68.4312 293.251 68.4254Z" fill="#ffffff"/>
<path d="M324.65 56.6198L332.286 58.8026C332.338 58.8179 332.386 58.8433 332.428 58.8774C332.47 58.9114 332.504 58.9535 332.53 59.0012C332.555 59.0488 332.571 59.1011 332.577 59.1549C332.582 59.2088 332.577 59.2632 332.561 59.315C331.694 62.2044 329.905 64.7255 327.471 66.4886C324.581 68.5442 321.1 69.585 317.564 69.4502C315.331 69.4958 313.111 69.0965 311.031 68.2751C308.952 67.4538 307.055 66.2267 305.448 64.6644C302.129 61.4808 300.47 57.204 300.47 51.834C300.383 49.5178 300.768 47.2081 301.601 45.0474C302.435 42.8866 303.699 40.9205 305.316 39.2701C306.81 37.7171 308.602 36.4865 310.583 35.6532C312.565 34.8198 314.694 34.4012 316.841 34.4228C321.952 34.4228 325.97 35.919 328.896 38.9114C331.821 41.9038 333.281 46.044 333.274 51.3319C333.294 52.2627 333.254 53.1939 333.152 54.1193C333.135 54.2135 333.086 54.2988 333.014 54.3605C332.941 54.4223 332.85 54.4566 332.755 54.4575H310.671C310.615 54.4573 310.56 54.4689 310.508 54.4914C310.457 54.5139 310.41 54.5468 310.372 54.5882C310.334 54.6296 310.304 54.6785 310.286 54.7318C310.267 54.7852 310.26 54.8418 310.264 54.8982C310.455 56.5145 311.275 57.9887 312.545 58.9973C313.983 60.2114 315.81 60.8595 317.686 60.8215C320.944 60.8215 323.103 59.4961 324.162 56.8453C324.204 56.7558 324.276 56.6841 324.365 56.6428C324.454 56.6016 324.555 56.5934 324.65 56.6198ZM310.895 47.9501H323.113C323.17 47.9504 323.227 47.9386 323.279 47.9154C323.331 47.8923 323.378 47.8584 323.416 47.8159C323.455 47.7734 323.484 47.7232 323.502 47.6686C323.52 47.6141 323.526 47.5563 323.52 47.4992C323.35 46.1819 322.748 44.9595 321.81 44.0251C321.154 43.4326 320.385 42.98 319.55 42.6947C318.716 42.4094 317.832 42.2972 316.953 42.3649C315.443 42.2951 313.958 42.7742 312.769 43.7148C311.58 44.6555 310.767 45.995 310.478 47.4889C310.47 47.5478 310.476 47.6075 310.494 47.6641C310.511 47.7206 310.541 47.7726 310.581 47.8164C310.621 47.8603 310.669 47.8949 310.723 47.918C310.778 47.9411 310.836 47.952 310.895 47.9501Z" fill="#ffffff"/>
<path d="M351.763 26.1527V34.9352C351.763 35.0439 351.806 35.1481 351.883 35.225C351.959 35.3019 352.062 35.3451 352.17 35.3451H357.77C357.823 35.3451 357.876 35.3557 357.925 35.3765C357.973 35.3972 358.018 35.4275 358.055 35.4658C358.092 35.504 358.121 35.5492 358.14 35.5989C358.159 35.6486 358.169 35.7017 358.167 35.755V43.7791C358.169 43.8325 358.159 43.8856 358.14 43.9352C358.121 43.9849 358.092 44.0302 358.055 44.0684C358.018 44.1066 357.973 44.137 357.925 44.1577C357.876 44.1784 357.823 44.1891 357.77 44.1891H352.17C352.117 44.1877 352.065 44.197 352.015 44.2165C351.966 44.236 351.921 44.2652 351.883 44.3024C351.845 44.3397 351.815 44.3842 351.794 44.4334C351.774 44.4825 351.763 44.5354 351.763 44.5887V56.5481C351.763 58.8573 352.975 60.0085 355.398 60.0016C356.12 59.9963 356.839 59.9208 357.546 59.7762C357.605 59.7622 357.665 59.7618 357.724 59.7749C357.783 59.7879 357.837 59.8142 357.884 59.8517C357.931 59.8891 357.969 59.9369 357.995 59.9912C358.022 60.0456 358.035 60.1052 358.035 60.1656V67.7798C358.038 67.8593 358.017 67.9378 357.975 68.0054C357.934 68.0729 357.873 68.1264 357.801 68.159C356.214 68.7705 354.52 69.0494 352.822 68.9788C351.363 69.0599 349.903 68.8489 348.526 68.3581C347.149 67.8674 345.882 67.1065 344.799 66.1196C343.795 65.1024 343.015 63.8846 342.508 62.5447C342.001 61.2049 341.779 59.773 341.857 58.3414V44.6297C341.858 44.5769 341.849 44.5242 341.829 44.4751C341.81 44.426 341.781 44.3814 341.744 44.344C341.706 44.3066 341.662 44.2772 341.613 44.2576C341.564 44.238 341.512 44.2286 341.46 44.2301H336.45C336.397 44.2301 336.345 44.2194 336.296 44.1987C336.247 44.1779 336.203 44.1476 336.166 44.1094C336.129 44.0712 336.1 44.0259 336.081 43.9762C336.061 43.9266 336.052 43.8735 336.053 43.8201V35.796C336.052 35.7427 336.061 35.6896 336.081 35.6399C336.1 35.5902 336.129 35.5449 336.166 35.5067C336.203 35.4685 336.247 35.4382 336.296 35.4174C336.345 35.3967 336.397 35.3861 336.45 35.3861H337.703C338.406 35.4344 339.112 35.3253 339.768 35.0666C340.425 34.8079 341.016 34.406 341.5 33.8899C342.389 32.7984 342.845 31.4154 342.783 30.0059V26.1527C342.783 26.0993 342.794 26.0465 342.814 25.9973C342.835 25.9482 342.865 25.9036 342.903 25.8664C342.941 25.8292 342.986 25.7999 343.035 25.7805C343.085 25.761 343.137 25.7516 343.19 25.753H351.336C351.39 25.7488 351.445 25.756 351.497 25.7741C351.549 25.7923 351.596 25.8211 351.636 25.8586C351.677 25.8962 351.709 25.9417 351.73 25.9923C351.752 26.0429 351.763 26.0975 351.763 26.1527Z" fill="#ffffff"/>
<path d="M385.769 35.7038V44.8552C385.769 44.9148 385.755 44.9736 385.73 45.0274C385.704 45.0812 385.668 45.1287 385.622 45.1668C385.576 45.2048 385.523 45.2324 385.466 45.2476C385.409 45.2629 385.349 45.2654 385.291 45.2549C384.404 45.0921 383.504 45.0132 382.603 45.0192C381.582 44.9839 380.565 45.1613 379.615 45.5405C378.665 45.9197 377.804 46.4923 377.085 47.2225C375.659 48.6777 374.946 50.9425 374.946 53.9964V68.0156C374.946 68.1243 374.904 68.2286 374.827 68.3054C374.751 68.3823 374.647 68.4255 374.539 68.4255H365.305C365.252 68.4255 365.199 68.4149 365.15 68.3941C365.101 68.3734 365.057 68.343 365.02 68.3048C364.983 68.2666 364.954 68.2214 364.935 68.1717C364.916 68.122 364.906 68.0689 364.908 68.0156V35.7961C364.906 35.7427 364.916 35.6897 364.935 35.64C364.954 35.5903 364.983 35.545 365.02 35.5068C365.057 35.4686 365.101 35.4383 365.15 35.4175C365.199 35.3968 365.252 35.3861 365.305 35.3862H374.213C374.32 35.3888 374.421 35.4332 374.495 35.5098C374.569 35.5864 374.61 35.6891 374.61 35.7961V38.3581C374.609 38.4438 374.635 38.5277 374.684 38.5975C374.734 38.6673 374.804 38.7192 374.885 38.7456C374.966 38.772 375.053 38.7715 375.134 38.7442C375.215 38.7168 375.285 38.6641 375.333 38.5938C376.076 37.547 377.081 36.7162 378.245 36.1855C379.772 35.4536 381.441 35.0688 383.132 35.0582C383.92 35.0488 384.705 35.1313 385.474 35.3042C385.56 35.3289 385.635 35.3815 385.689 35.4537C385.742 35.5259 385.77 35.6138 385.769 35.7038Z" fill="#ffffff"/>
<path d="M392.703 29.4731C391.608 28.3585 390.994 26.8543 390.994 25.2868C390.994 23.7194 391.608 22.2151 392.703 21.1005C393.527 20.2739 394.57 19.7046 395.708 19.461C396.846 19.2174 398.03 19.3098 399.117 19.7273L399.219 19.7785C400.629 20.4306 401.744 21.592 402.344 23.0325C402.943 24.473 402.983 26.0877 402.456 27.5567C402.446 27.5969 402.428 27.6349 402.405 27.6695C401.894 28.72 401.103 29.6064 400.119 30.2292C399.135 30.8519 397.998 31.1863 396.836 31.1947C396.067 31.2079 395.303 31.0619 394.592 30.7657C393.881 30.4696 393.238 30.0296 392.703 29.4731ZM401.479 68.4152H392.275C392.169 68.4126 392.068 68.3682 391.994 68.2916C391.919 68.215 391.878 68.1123 391.878 68.0053V35.7961C391.878 35.6891 391.919 35.5864 391.994 35.5098C392.068 35.4332 392.169 35.3888 392.275 35.3862H401.438C401.546 35.3862 401.65 35.4293 401.726 35.5062C401.803 35.5831 401.846 35.6873 401.846 35.7961V68.0156C401.846 68.0694 401.835 68.1227 401.814 68.1724C401.794 68.2222 401.764 68.2674 401.726 68.3054C401.688 68.3435 401.643 68.3737 401.594 68.3943C401.545 68.4149 401.492 68.4255 401.438 68.4255L401.479 68.4152Z" fill="#ffffff"/>
<path d="M425.792 43.6972C424.792 43.6679 423.798 43.8476 422.87 44.2251C421.943 44.6026 421.104 45.1696 420.406 45.8903C419.662 46.7007 419.088 47.6539 418.719 48.6929C418.35 49.7318 418.193 50.8351 418.258 51.9365C418.201 53.033 418.368 54.1295 418.748 55.1587C419.128 56.1878 419.713 57.128 420.467 57.9213C421.184 58.6371 422.036 59.2003 422.974 59.5771C423.912 59.9539 424.915 60.1366 425.924 60.1144C427.529 60.1782 429.104 59.6701 430.374 58.6797C431.387 57.8841 432.159 56.8193 432.603 55.6053C432.634 55.5053 432.702 55.4215 432.794 55.3717C432.885 55.3218 432.992 55.3101 433.092 55.3388L441.237 57.8291C441.338 57.8622 441.422 57.9324 441.473 58.0256C441.524 58.1188 441.538 58.2281 441.512 58.3312C440.62 61.3923 438.797 64.0947 436.299 66.0582C433.361 68.3825 429.7 69.5843 425.965 69.4502C423.657 69.5035 421.362 69.0932 419.214 68.2434C417.065 67.3935 415.106 66.1211 413.452 64.5005C411.777 62.8883 410.458 60.9391 409.581 58.7796C408.704 56.6202 408.288 54.299 408.362 51.9673C408.293 49.6551 408.693 47.3531 409.537 45.2015C410.381 43.05 411.652 41.0939 413.271 39.4525C414.891 37.811 416.825 36.5186 418.956 35.6539C421.088 34.7892 423.372 34.3703 425.67 34.4228C429.405 34.2797 433.074 35.442 436.055 37.7124C438.57 39.6793 440.388 42.4108 441.237 45.5008C441.266 45.6041 441.253 45.7145 441.201 45.8083C441.15 45.9022 441.064 45.9721 440.962 46.003L432.736 48.5035C432.636 48.5296 432.53 48.5167 432.439 48.4672C432.348 48.4177 432.28 48.3355 432.247 48.237C431.842 47.0097 431.105 45.9202 430.119 45.0909C428.889 44.1205 427.353 43.6261 425.792 43.6972Z" fill="#ffffff"/>
<path d="M445.381 58.9769L453.098 57.5934C453.153 57.5832 453.209 57.5846 453.263 57.5975C453.317 57.6104 453.367 57.6345 453.412 57.6683C453.456 57.7021 453.492 57.7448 453.519 57.7937C453.546 57.8425 453.562 57.8965 453.567 57.9521C453.719 58.9869 454.201 59.9437 454.941 60.6781C455.447 61.133 456.038 61.4817 456.68 61.7034C457.322 61.9251 458.001 62.0156 458.678 61.9693C459.689 62.0346 460.69 61.7409 461.508 61.1392C461.826 60.9017 462.083 60.5925 462.26 60.2365C462.437 59.8805 462.528 59.4877 462.526 59.0896C462.526 57.7574 461.447 56.8453 459.289 56.3637L455.522 55.4926C452.169 54.8094 449.705 53.5592 448.13 51.7419C446.556 49.985 445.705 47.6918 445.747 45.3267C445.736 43.8421 446.054 42.3737 446.678 41.0282C447.301 39.6827 448.215 38.494 449.352 37.5485C451.851 35.3856 455.068 34.248 458.362 34.3614C462.632 34.3614 465.835 35.3862 467.973 37.4357C469.829 39.0904 471.062 41.3376 471.466 43.7997C471.478 43.9039 471.449 44.0086 471.387 44.0925C471.324 44.1764 471.232 44.233 471.13 44.2506L463.595 45.6443C463.542 45.653 463.487 45.6509 463.434 45.638C463.382 45.6251 463.332 45.6018 463.288 45.5693C463.245 45.5369 463.208 45.4959 463.18 45.449C463.153 45.402 463.135 45.35 463.127 45.2959C462.968 44.3433 462.516 43.4651 461.834 42.7852C460.912 41.9815 459.712 41.5764 458.495 41.6579C457.595 41.6385 456.714 41.9196 455.99 42.4572C455.667 42.6894 455.405 42.9975 455.228 43.3548C455.051 43.712 454.963 44.1075 454.972 44.5068C454.972 45.839 455.827 46.6589 457.548 46.9663L461.905 47.8272C464.75 48.2548 467.385 49.5828 469.429 51.6189C471.111 53.3877 472.036 55.7501 472.005 58.1981C472.02 59.6812 471.721 61.1505 471.13 62.509C470.538 63.8675 469.667 65.0842 468.574 66.0787C466.287 68.2718 463.073 69.3683 458.932 69.3683C456.744 69.4194 454.564 69.0722 452.498 68.3435C450.863 67.7918 449.388 66.8453 448.201 65.5868C447.295 64.5809 446.537 63.4489 445.951 62.2255C445.535 61.3361 445.25 60.3901 445.106 59.4176C445.094 59.3234 445.115 59.2281 445.165 59.1477C445.215 59.0673 445.292 59.007 445.381 58.9769Z" fill="#ffffff"/>
<path d="M72.3154 21.4387C72.3154 25.6788 71.0662 29.8238 68.7258 33.3494C66.3854 36.8749 63.0589 39.6228 59.1669 41.2454C55.275 42.8681 50.9924 43.2926 46.8607 42.4654C42.729 41.6382 38.9338 39.5964 35.955 36.5981C32.9762 33.5999 30.9477 29.7798 30.1258 25.6211C29.304 21.4625 29.7258 17.1519 31.3379 13.2344C32.95 9.31704 35.68 5.96877 39.1827 3.61306C42.6853 1.25735 46.8034 0 51.016 0C53.8131 0 56.5828 0.554525 59.1669 1.63192C61.7511 2.70931 64.0991 4.28847 66.077 6.27924C68.0548 8.27 69.6237 10.6334 70.6941 13.2344C71.7645 15.8355 72.3154 18.6233 72.3154 21.4387Z" fill="#ffffff"/>
<path d="M22.2341 41.3607C22.2333 41.5621 22.1912 41.7612 22.1105 41.9456C22.0298 42.1299 21.9122 42.2956 21.7651 42.4321C21.618 42.5687 21.4444 42.6732 21.2553 42.7393C21.0663 42.8053 20.8657 42.8314 20.6661 42.8159C15.3481 42.3627 10.393 39.9165 6.78133 35.9614C3.16971 32.0064 1.16486 26.8307 1.16357 21.4588C1.16229 16.0869 3.16468 10.9102 6.77442 6.9534C10.3842 2.99659 15.3382 0.547994 20.656 0.0922424C20.8558 0.0751787 21.057 0.100168 21.2468 0.165619C21.4366 0.231071 21.6107 0.335551 21.7582 0.47242C21.9057 0.609288 22.0232 0.775549 22.1034 0.960626C22.1836 1.1457 22.2246 1.34554 22.2239 1.54745L22.2341 41.3607Z" fill="#ffffff"/>
<path d="M0.944092 71.5716C0.944092 75.8118 2.19327 79.9567 4.53368 83.4823C6.87409 87.0079 10.2006 89.7557 14.0926 91.3784C17.9845 93.001 22.2671 93.4256 26.3988 92.5983C30.5305 91.7711 34.3257 89.7293 37.3045 86.731C40.2832 83.7328 42.3118 79.9128 43.1337 75.7541C43.9555 71.5954 43.5337 67.2848 41.9216 63.3674C40.3095 59.45 37.5795 56.1017 34.0768 53.746C30.5741 51.3903 26.4561 50.1329 22.2435 50.1329C16.5945 50.1329 11.177 52.3916 7.18254 56.4122C3.18812 60.4327 0.944092 65.8857 0.944092 71.5716Z" fill="#ffffff"/>
<path d="M51.0161 91.4936C51.0169 91.6951 51.059 91.8942 51.1397 92.0785C51.2204 92.2629 51.3379 92.4285 51.4851 92.5651C51.6322 92.7016 51.8057 92.8062 51.9948 92.8722C52.1839 92.9382 52.3845 92.9643 52.584 92.9488C57.9385 92.5397 62.9419 90.11 66.5925 86.1461C70.2431 82.1822 72.2714 76.9766 72.2714 71.5716C72.2714 66.1666 70.2431 60.961 66.5925 56.9971C62.9419 53.0332 57.9385 50.6035 52.584 50.1944C52.385 50.1774 52.1847 50.2021 51.9956 50.267C51.8065 50.3318 51.6329 50.4354 51.4856 50.5711C51.3382 50.7069 51.2205 50.8719 51.1397 51.0558C51.0589 51.2396 51.0168 51.4383 51.0161 51.6394V91.4936Z" fill="#ffffff"/>
</g>
<defs>
<clipPath id="clip0_1888_2001">
<rect width="471" height="93" fill="white" transform="translate(0.944092)"/>
</clipPath>
</defs>
</svg>
